<?xml version="1.0" encoding="utf-8"?>
<!-- Generator: Adobe Illustrator 26.2.1, SVG Export Plug-In . SVG Version: 6.00 Build 0)  -->
<svg version="1.1" id="圖層_1" xmlns="http://www.w3.org/2000/svg" xmlns:xlink="http://www.w3.org/1999/xlink" x="0px" y="0px"
	 viewBox="0 0 1125 1227.8" style="enable-background:new 0 0 1125 1227.8;" xml:space="preserve">
<style type="text/css">
	.st0{fill:#06060B;}
	.st1{fill:none;stroke:url(#SVGID_1_);stroke-width:5;stroke-miterlimit:10;}
	
		.st2{fill:none;stroke:url(#SVGID_00000004517168241627941230000001635721468648164228_);stroke-width:5;stroke-miterlimit:10;stroke-dasharray:11.9908,11.9908;}
	.st3{fill:none;stroke:url(#SVGID_00000065778809453128558400000010294859918867367332_);stroke-width:5;stroke-miterlimit:10;}
	.st4{fill:none;stroke:url(#SVGID_00000124867536739302626500000007977365268386665116_);stroke-width:5;stroke-miterlimit:10;}
	
		.st5{fill:none;stroke:url(#SVGID_00000145060444532343502730000007366666338637744012_);stroke-width:5;stroke-miterlimit:10;stroke-dasharray:12.021,12.021;}
	.st6{fill:none;stroke:url(#SVGID_00000134247781168608525830000018331012891312387256_);stroke-width:5;stroke-miterlimit:10;}
	.st7{fill:#CFE6A6;}
	.st8{fill:#F6EEA8;}
	.st9{fill:#F4B678;}
	.st10{fill:none;stroke:#FB5CFF;stroke-miterlimit:10;}
	.st11{fill:#E57D7D;}
	.st12{fill:#AAECEC;}
	.st13{fill:#A19FDA;}
	.st14{font-family:'GillSans-SemiBold';}
	.st15{font-size:119.5283px;}
	.st16{fill:url(#SVGID_00000091713276880045704230000007248582525358206081_);}
	.st17{fill:url(#SVGID_00000093178493516100099660000010321926958578247049_);}
	.st18{fill:url(#SVGID_00000128462471612688487040000013156355796862197182_);}
	.st19{fill:url(#SVGID_00000098197638557365178890000011856717158453910705_);}
	.st20{fill:url(#SVGID_00000156569713173492072060000009951854235731980991_);}
	.st21{fill:url(#SVGID_00000013154991614679826950000018024357950783279791_);}
	.st22{fill:url(#SVGID_00000108302348802696997230000004617903721667485583_);}
	.st23{fill:url(#SVGID_00000026137668412557494690000013639350489261628044_);}
	.st24{fill:url(#SVGID_00000040562631346926123360000003340786491573620396_);}
	.st25{fill:url(#SVGID_00000054258526369631405480000018263122519709039515_);}
	.st26{fill:url(#SVGID_00000011023594747424047770000006600450779128307078_);}
	.st27{fill:url(#SVGID_00000072273039072952072440000005078168033794110377_);}
	.st28{fill:url(#SVGID_00000175316846868984518050000015284708554374800514_);}
</style>
<g id="圖層_1_00000147934736159801087880000007779803968401986197_">
</g>
<g id="圖層_7">
	<g>
		<rect x="-12.6" y="-6.8" class="st0" width="1143.4" height="1534.3"/>
		<path d="M1130.3-6.5v1143v390.7H-12.1v-438.6V-6.5H1130.3 M1131.3-7.1c-381.5,0-762.9,0-1144.4,0c0,365.3,0,730.5,0,1095.8
			c0,146.4,0,292.8,0,439.2h1144.4c0-130.5,0-260.9,0-391.3C1131.3,755.3,1131.3,374.1,1131.3-7.1L1131.3-7.1z"/>
	</g>
</g>
<g id="圖層_3">
	<g>
		<g>
			
				<linearGradient id="SVGID_1_" gradientUnits="userSpaceOnUse" x1="373.4381" y1="1940.1643" x2="1162.884" y2="1940.1643" gradientTransform="matrix(1 0 0 -1 0 2436)">
				<stop  offset="0" style="stop-color:#C8A5FF"/>
				<stop  offset="0.2504" style="stop-color:#6F78FF"/>
				<stop  offset="0.483" style="stop-color:#1053FF"/>
				<stop  offset="0.759" style="stop-color:#0131CC"/>
				<stop  offset="1" style="stop-color:#000069"/>
			</linearGradient>
			<path class="st1" d="M1161.8,494.7c-1.5,0.8-3,1.5-4.5,2.2"/>
			
				<linearGradient id="SVGID_00000179630472151677533870000003991382240175743935_" gradientUnits="userSpaceOnUse" x1="386.1248" y1="2170.2461" x2="1162.8821" y2="2170.2461" gradientTransform="matrix(1 0 0 -1 0 2436)">
				<stop  offset="0" style="stop-color:#C8A5FF"/>
				<stop  offset="0.2504" style="stop-color:#6F78FF"/>
				<stop  offset="0.483" style="stop-color:#1053FF"/>
				<stop  offset="0.759" style="stop-color:#0131CC"/>
				<stop  offset="1" style="stop-color:#000069"/>
			</linearGradient>
			
				<path style="fill:none;stroke:url(#SVGID_00000179630472151677533870000003991382240175743935_);stroke-width:5;stroke-miterlimit:10;stroke-dasharray:11.9908,11.9908;" d="
				M1148.2,501.2c-51.8,24-108,39.8-167,46.7c-4.3,0.8-8.6,1.5-12.9,1.5c-36.9,3.8-72.9,5.3-109.7,1.5c-2.6,0-5.1,0-7.7,0
				c-54-6-105.4-16.5-154.3-36.1c-1.7-0.8-2.6,0-4.3-0.8c-18-7.5-34.3-15-52.3-24.1c-0.9-0.8-1.7-1.5-2.6-2.3
				c-54.9-27.8-98.6-62.4-138-105.3c-40.3-45.1-68.6-92.5-87.4-145.9c-8.6-26.3-15.4-52.6-19.7-79.7c-1.7-12.8-1.7-24.8-2.6-36.8
				c-3.4-40.6,0.9-79.7,10.3-121c0-0.8,1.7-2.3,1.7-3c1.8-6.7,3.1-13.1,4.9-19.4"/>
			
				<linearGradient id="SVGID_00000062185479638675095330000008009205589979885211_" gradientUnits="userSpaceOnUse" x1="383.9491" y1="2465.9558" x2="1248.6982" y2="2465.9558" gradientTransform="matrix(1 0 0 -1 0 2436)">
				<stop  offset="0" style="stop-color:#C8A5FF"/>
				<stop  offset="0.2504" style="stop-color:#6F78FF"/>
				<stop  offset="0.483" style="stop-color:#1053FF"/>
				<stop  offset="0.759" style="stop-color:#0131CC"/>
				<stop  offset="1" style="stop-color:#000069"/>
			</linearGradient>
			
				<path style="fill:none;stroke:url(#SVGID_00000062185479638675095330000008009205589979885211_);stroke-width:5;stroke-miterlimit:10;" d="
				M408-27.7c0.4-1.4,0.9-2.9,1.5-4.4"/>
		</g>
	</g>
	<g>
		<g>
			
				<linearGradient id="SVGID_00000170999630297235430210000001770942378155565734_" gradientUnits="userSpaceOnUse" x1="375.1498" y1="1930.2445" x2="1164.1228" y2="1930.2445" gradientTransform="matrix(1 0 0 -1 0 2436)">
				<stop  offset="0" style="stop-color:#C8A5FF"/>
				<stop  offset="0.2504" style="stop-color:#6F78FF"/>
				<stop  offset="0.483" style="stop-color:#1053FF"/>
				<stop  offset="0.759" style="stop-color:#0131CC"/>
				<stop  offset="1" style="stop-color:#000069"/>
			</linearGradient>
			
				<path style="fill:none;stroke:url(#SVGID_00000170999630297235430210000001770942378155565734_);stroke-width:5;stroke-miterlimit:10;" d="
				M1163.2,504.9c-1.5,0.6-3.2,1.2-4.7,1.7"/>
			
				<linearGradient id="SVGID_00000164509102444589195600000012070257064890769567_" gradientUnits="userSpaceOnUse" x1="383.1817" y1="2172.332" x2="1164.1519" y2="2172.332" gradientTransform="matrix(1 0 0 -1 0 2436)">
				<stop  offset="0" style="stop-color:#C8A5FF"/>
				<stop  offset="0.2504" style="stop-color:#6F78FF"/>
				<stop  offset="0.483" style="stop-color:#1053FF"/>
				<stop  offset="0.759" style="stop-color:#0131CC"/>
				<stop  offset="1" style="stop-color:#000069"/>
			</linearGradient>
			
				<path style="fill:none;stroke:url(#SVGID_00000164509102444589195600000012070257064890769567_);stroke-width:5;stroke-miterlimit:10;stroke-dasharray:12.021,12.021;" d="
				M1148.9,510.1c-83.1,28.6-172.9,38.9-262,30.3c-139.7-14.3-267.4-69.9-362.5-163.1C413.5,269.7,362.8,121.8,395.5-17.9"/>
			
				<linearGradient id="SVGID_00000168086974761062444410000017096286100177336985_" gradientUnits="userSpaceOnUse" x1="381.7984" y1="2460.5349" x2="1261.1484" y2="2460.5349" gradientTransform="matrix(1 0 0 -1 0 2436)">
				<stop  offset="0" style="stop-color:#C8A5FF"/>
				<stop  offset="0.2504" style="stop-color:#6F78FF"/>
				<stop  offset="0.483" style="stop-color:#1053FF"/>
				<stop  offset="0.759" style="stop-color:#0131CC"/>
				<stop  offset="1" style="stop-color:#000069"/>
			</linearGradient>
			
				<path style="fill:none;stroke:url(#SVGID_00000168086974761062444410000017096286100177336985_);stroke-width:5;stroke-miterlimit:10;" d="
				M396.5-22.3c0.3-1.5,0.8-2.9,1.1-4.4"/>
		</g>
	</g>
	<g id="XMLID_00000115482762558284497510000006761294678604831416_">
		<g>
			<path class="st7" d="M417.6,167.3c1.3,0.8,3.1,1.7,2.9,2l0,0c-0.3,0.2-3.2-1.3-5.5-2.8c-2.5-1.6-2.3-2-4.2-2.9
				c-1.1-0.6-0.8-0.2-3.9-1.5c-0.9-0.4-1.9-0.8-3.3-0.8c-0.5,0-1.4-0.1-1.6,0.4c-0.3,0.4,0.3,1,0.5,1.3c3.6,4.2,5,5.3,5,5.3
				c2.7,2.2,4.2,3.1,4.1,3.2c-0.2,0.2-2.1-0.8-3.6-1.6c-0.9-0.5-2.2-1.2-3.6-2.3c-2.8-2.3-2.2-3.3-5.1-6c-0.3-0.3-1.9-1.7-4.5-3.1
				c-1.5-0.8-3.5-1.7-4.5-1.1c-0.5,0.3-0.6,0.8-0.8,1.4c-0.1,0.5-0.3,1.5,0.3,3.1c0.8,1.9,1.6,2,1.8,3.3c0.2,1.2-0.3,2.3-0.7,2.3
				s-0.3-1.1-1.1-2.6c-0.9-2-1.5-1.7-1.9-3c-0.4-1.5,0.3-2.4-0.6-3.5c-0.2-0.2-0.4-0.5-0.9-0.5c-0.8,0-1.2,1.4-1.5,2
				c-0.3,1.1-0.3,1.7-0.5,3.7c-0.3,2.3-0.3,2.4-0.3,3.2c0.1,0.5,0.3,1.1,0.6,2.5c0.3,1.1,0.5,1.7,0.7,2.3c0.2,0.6,0.7,2,1.5,3.6
				c0.2,0.3,0.4,0.8,0.7,1.4c0.3,0.9,0.7,1.7,0.4,1.7c-0.3,0.2-1.8-1.1-2.7-2.6c-0.3-0.5-0.4-1.1-0.9-2.3c-0.6-2-0.7-2.9-0.9-2.9
				s-0.4,1-0.8,5.3c-0.1,1.3-0.1,2.5-0.2,3.8c0.3,1.8,0.3,3.3,0.3,4.4c0,0.9,0,1.9-0.3,3.1c-0.1,0.4-0.5,2-0.9,2
				c-0.1,0-0.3-0.2-0.9-4.3c-0.3-2-0.3-2.9-0.3-3.9c0-1.7,0.1-3,0.4-5.7c0.3-2.1,0.3-2.3,0.8-5.6c0.5-4.4,0.3-3.4,0.5-4.1
				c0.2-1,0.6-2.8,0.3-5c-0.1-0.7-0.3-1.1-0.5-1.2c-0.3-0.1-0.7,0.6-1.5,2.3c-0.8,1.4-1.2,2.2-1.5,2.7c-0.2,0.4-1,1.7-2.2,3.3
				c-0.4,0.6-2.1,2.9-2.6,2.8c-0.3-0.2,0.5-2,0.7-2.3c0.7-1.4,1.1-1.8,1.9-3.5c0.5-1.1,1-2,0.7-2.2c-0.3-0.2-1.2,0.6-3.5,2.2
				c-2.3,1.6-3.5,2.2-4.8,2.5c-0.8,0.2-2.3,0.5-2.5,0.2c-0.3-0.4,1.3-1.4,2.1-1.8c1.3-0.8,1.8-0.8,3.2-1.4c0.8-0.4,1.8-1.1,3.9-2.4
				c2.4-1.6,2.7-2,3.1-2.3c0.9-1,1.2-1.7,1.5-2.6c0.3-0.7,0.5-1.5,0.1-2.2c0,0,0,0,0-0.1c-0.3-0.6-1.1-1.1-1.7-1.2
				c-0.7-0.1-0.8,0.5-2,1.1c-1.4,0.8-2.7,1-3.3,1.1c-0.7,0.1-1.6,0.2-2.7,0c-1.1-0.2-2.1-0.8-2.1-1.1c0.1-0.2,1.1-0.2,2.1-0.2
				c1.3,0.1,1.5,0.2,2.1,0.2c1.7,0,3.5-1.1,3.4-1.8c-0.1-0.6-1.5-0.4-4.4-1.5c-1.5-0.6-1.8-1-3.1-1.3c-1.4-0.4-2.5-0.4-3.3-0.4
				c-3.1-0.5-3.6-0.8-3.6-1c0-0.4,1.6-0.7,3-0.8c1.2-0.1,2.1,0.2,3.6,0.5c1.7,0.4,3,0.8,4.1,1.2c1.5,0.5,2.3,0.8,3.2,1.2
				c1.6,0.8,2.1,1.1,2.7,1c1-0.2,1.5-1.3,1.6-1.7c0.6-1.5,0-2.9-0.3-3.5c-0.7-1.2-1.7-2.6-3.4-4c-0.9-0.8-1.2-0.8-3.2-2.1
				c-2.1-1.5-2.5-2-4.5-3.3c-2.1-1.6-3.3-2.3-4.3-2.8c-3.2-1.5-4.2-0.5-8.6-1.8c-3.9-1.1-7.2-3.1-7.4-3.2h0.1c0.9,0,2.3,0.1,3.8,0.5
				c1,0.3,1.2,0.5,2.4,1c0.9,0.3,1.7,0.5,4.7,1c3.5,0.6,3.2,0.4,4.1,0.6c1.9,0.5,3.2,1.4,4.5,2.2c0.9,0.5,1.7,1.2,3.3,2.5
				c2.2,1.7,2.9,2.4,3.1,2.3s-0.3-0.9-3.3-4.4c-1.4-1.7-2.7-2.9-3.7-3.8c-1.7-1.4-2.9-2.1-4.1-3.8c-0.8-1.1-1.5-2.6-1.2-2.7
				c0.3-0.2,1.2,0.8,3.4,2.8c2.5,2.2,2.4,1.9,3.8,3.2c2.1,2,3.4,3.5,4.7,5c1,1.3,2.3,2.9,3.7,4.9c1.9,2.8,3.4,4.2,4.4,4
				c0.6-0.2,0.6-1.1,1-3.5c0.5-3.2,0.9-2.6,1.7-6.9c0.8-3.8,0.9-5.6,1.3-5.6c0.4,0,0.9,1.5,0.9,2.9c0.1,1-0.1,1.7-0.6,3.5
				c-0.9,3.7-1.1,4.1-1.2,5.1c-0.1,1.1-0.3,3.5,0.7,3.8c0.9,0.2,2-1.1,3.6-2.5c1.6-1.5,4-3.5,7.4-5.5c2.1-1.7,3.8-3.2,4.8-4.3
				c1.9-2.1,3.2-4,3.4-4.4c0.3-0.6,1.4-2.2,2.7-4.4c0.9-1.4,1.4-2.1,1.5-2c0.3,0.1,0.1,1.8-0.1,2.7c-0.3,1.5-0.9,2.7-1.4,3.5
				c-2.1,2.9-4.2,5.1-5.7,6.5c-1.9,1.7-3.9,3.1-7.3,5.5c-2.1,1.5-3.9,2.8-3.8,3.1c0.1,0.1,0.5-0.1,2.9-0.8c2.5-0.8,2.4-0.7,2.8-0.9
				c2.3-0.9,3.3-2,3.6-1.8c0.2,0.2-0.4,1-0.9,1.5c-0.3,0.4-1,0.9-2.4,1.5c-0.3,0.2-1,0.5-2.7,1c-2.4,0.8-3,0.7-3.9,1.4
				c-0.3,0.2-1.2,0.9-1,1.6c0.2,0.5,0.8,0.8,1.4,1c0.7,0.3,1.6,0.5,3.2,0.5c1.5,0,2.7-0.2,3.9-0.5c1.1-0.3,2.1-0.8,4.2-1.7
				c1.9-0.8,3.3-1.6,4.1-2c1.4-0.7,2.5-1.3,3.9-2c2.2-1.3,3.3-2.1,3.5-1.9c0.2,0.2-0.4,1.1-0.9,1.5c-0.9,1-2,1.6-2.7,1.9
				c-0.9,0.6-1.8,1.2-2.7,1.8c-0.7,0.2-1.2,0.5-1.6,0.6c-0.3,0.2-0.9,0.4-1.5,0.7c-0.9,0.5-1.4,0.6-1.4,0.8c0.1,0.3,1.5,0.2,2.7,0.2
				c0.4,0,1.4-0.1,3.1-0.4c1.5-0.2,1.5-0.4,3.2-0.7c1.3-0.2,1.3-0.2,2.6-0.4c2.1-0.4,2.4-0.6,3.8-0.8c1.1-0.2,3.2-0.2,3.3,0.1
				c0.1,0.3-1.5,1-3,1.2c-0.6,0.1-0.7,0-1.4,0.1c-1.2,0.2-2,0.5-2.3,0.7c-0.9,0.4-2.3,0.6-5.1,0.9c-3,0.4-3.2,0.2-5.7,0.7
				c-1.3,0.2-2.6,0.5-3,0.6c-0.9,0.2-1.8,0.5-2.7,0.7c-0.3,0.1-2.6,0.5-3.8,2.2c-0.3,0.4-0.8,1.4-0.6,2.6s1,2,1.7,2.7
				c1.2,1.1,2.4,1.7,3.7,2.2c1,0.5,1.8,0.7,3.5,1.1c5.7,1.6,5.5,1.4,6.7,1.9c2.5,1.1,4.3,2.5,4.9,2.9
				C416,165.9,415.9,166.2,417.6,167.3z"/>
		</g>
	</g>
	<g id="XMLID_00000137104179932668725980000008411335335023672750_">
		<g>
			<path class="st8" d="M492.8,307.3c1.4,1.1,3.3,2.3,3,2.6l0,0c-0.3,0.3-3.5-1.8-5.9-3.8c-2.7-2.1-2.4-2.5-4.4-3.8
				c-1.3-0.8-0.9-0.3-4.3-2.2c-0.9-0.5-2.1-1.1-3.7-1.4c-0.6-0.1-1.5-0.2-1.9,0.2c-0.3,0.5,0.2,1.2,0.4,1.5c3.6,5.3,5,6.7,5,6.7
				c2.8,2.9,4.5,4.1,4.3,4.2c-0.2,0.2-2.3-1.1-3.9-2.2c-0.9-0.6-2.4-1.7-3.9-3.2c-2.9-3-2.1-4.1-5.1-7.5c-0.3-0.4-8.4-6.5-9.8-5.9
				c-0.6,0.3-0.9,0.8-1,1.6c-0.2,0.5-0.5,1.7,0,3.6c0.6,2.3,1.5,2.5,1.6,4c0,1.4-0.7,2.7-1,2.6c-0.3,0-0.3-1.2-0.9-3.2
				c-0.9-2.4-1.5-2.2-1.8-3.8c-0.3-1.8,0.7-2.8-0.3-4.1c-0.2-0.2-0.4-0.7-0.9-0.7c-0.9-0.1-1.5,1.5-1.9,2.3
				c-0.6,1.2-0.6,1.8-1.1,4.2c-0.5,2.6-0.7,2.7-0.7,3.7c0,0.5,0.2,1.4,0.3,2.9c0.2,1.4,0.3,2.1,0.4,2.7c0.2,0.7,0.5,2.3,1.3,4.4
				c0.2,0.4,0.3,0.9,0.6,1.7c0.3,1.1,0.5,2,0.3,2.1c-0.3,0.2-2-1.4-2.7-3.3c-0.3-0.6-0.4-1.4-0.7-2.7c-0.5-2.3-0.4-3.4-0.7-3.4
				c-0.3,0-0.7,1.1-1.5,6c-0.3,1.4-0.4,2.9-0.7,4.4c0.1,2.1,0,3.8-0.2,5.2c-0.1,1.1-0.3,2.2-0.8,3.5c-0.2,0.5-0.9,2.3-1.3,2.3
				c-0.1,0-0.4-0.2-0.4-5.1c0-2.3,0-3.5,0.1-4.6c0.2-2,0.5-3.5,1.2-6.5c0.5-2.5,0.7-2.6,1.5-6.5c1.2-5,0.8-3.8,1.1-4.8
				c0.3-1.1,1-3.2,0.9-5.8c0-0.8-0.1-1.4-0.4-1.4c-0.3-0.1-0.9,0.7-2.1,2.5c-1.1,1.6-1.6,2.4-2.1,3c-0.3,0.4-1.4,1.9-2.9,3.6
				c-0.6,0.7-2.8,3.2-3.3,2.9c-0.3-0.2,0.9-2.3,1-2.6c0.9-1.6,1.5-2,2.7-3.8c0.7-1.2,1.4-2.3,1-2.5c-0.3-0.2-1.5,0.6-4.3,2.2
				c-2.8,1.6-4.3,2.1-5.8,2.4c-0.9,0.2-2.7,0.4-2.9,0c-0.2-0.5,1.6-1.4,2.7-1.9c1.5-0.8,2.1-0.7,3.8-1.3c0.9-0.4,2.2-1.1,4.6-2.4
				c2.9-1.6,3.4-2,3.8-2.3c1.1-1.1,1.5-1.9,2.1-2.9c0.3-0.8,0.8-1.7,0.4-2.6v-0.1c-0.3-0.8-1.1-1.4-1.8-1.5
				c-0.8-0.2-0.9,0.5-2.4,1.1c-1.6,0.8-7.7-1.1-6.6-0.9c1.5,0.2,1.6,0.4,2.3,0.5c2,0.2,4.2-0.9,4.1-1.7c-0.1-0.7-1.7-0.6-4.7-2.2
				c-1.6-0.9-2-1.3-3.3-1.8c-1.5-0.5-2.8-0.8-3.8-0.8c-3.4-0.8-4-1.3-4-1.5c0.1-0.5,2-0.7,3.5-0.5c1.4,0.1,2.4,0.4,4.1,1
				c1.9,0.6,3.3,1.3,4.5,1.9c1.7,0.8,2.6,1.2,3.4,1.7c1.7,1,2.2,1.5,3,1.4c1.2-0.2,1.9-1.4,2.1-1.9c0.9-1.7,0.4-3.4,0.2-4.1
				c-0.6-1.4-1.6-3.2-3.4-5c-0.9-1-1.2-1-3.3-2.9c-2.2-2-2.7-2.5-4.7-4.4c-2.2-2-3.4-3-4.5-3.8c-3.4-2.1-4.7-1.1-9.6-3
				c-4.3-1.7-7.9-4.4-8-4.4c0,0,0.1,0,0.1,0.1c1,0.1,2.6,0.3,4.3,1c1.2,0.5,1.3,0.8,2.6,1.4c0.9,0.5,1.9,0.8,5.2,1.7
				c3.9,1.1,3.6,0.8,4.6,1.2c2.1,0.8,3.4,1.9,4.8,3c0.9,0.8,1.8,1.6,3.5,3.2c2.3,2.3,3,3.1,3.2,3s-0.3-1.1-3.2-5.5
				c-1.4-2.2-2.7-3.8-3.8-4.7c-1.7-1.8-3.1-2.8-4.2-4.9c-0.8-1.4-1.4-3.1-1-3.2c0.3-0.2,1.2,1.1,3.6,3.6c2.6,2.8,2.5,2.5,3.9,4.1
				c2.1,2.5,3.5,4.5,4.7,6.4c1,1.6,2.3,3.6,3.6,6.1c1.8,3.5,3.4,5.3,4.5,5.1c0.8-0.1,0.8-1.2,1.5-3.9c1-3.6,1.3-2.9,2.8-7.9
				c1.4-4.4,1.7-6.3,2.1-6.3c0.4,0.1,0.8,1.9,0.7,3.4c-0.1,1.2-0.3,2-1.1,4c-1.5,4.1-1.8,4.6-2.1,5.8s-0.8,4,0.3,4.4
				c0.9,0.4,2.4-1,4.4-2.5c2.1-1.6,5.1-3.5,9.1-5.6c2.7-1.7,4.6-3.2,6-4.4c2.4-2.2,4.1-4.3,4.5-4.7c0.5-0.6,1.8-2.4,3.7-4.8
				c1.2-1.6,1.8-2.3,2.1-2.2c0.4,0.2-0.2,2.1-0.5,3.2c-0.6,1.7-1.4,3-2,4c-2.7,3.2-5.4,5.5-7.5,7c-2.4,1.8-4.9,3.2-9,5.6
				c-2.6,1.6-4.9,2.9-4.7,3.2c0.1,0.2,0.6,0,3.4-0.6c2.9-0.7,2.8-0.6,3.3-0.8c2.7-0.8,4-1.9,4.3-1.7c0.2,0.2-0.6,1.1-1.3,1.7
				c-0.4,0.4-1.3,0.9-2.9,1.5c-0.3,0.1-1.3,0.5-3.3,0.8c-2.8,0.6-3.5,0.5-4.6,1.2c-0.4,0.2-1.5,0.9-1.4,1.7c0.1,0.6,0.8,1,1.4,1.3
				c0.8,0.4,1.8,0.8,3.5,1c1.7,0.2,3.2,0.1,4.5-0.2s2.6-0.6,5-1.4c2.3-0.8,4-1.4,5-1.8c1.7-0.7,3-1.2,4.7-2c2.7-1.3,4-2,4.3-1.9
				c0.3,0.2-0.7,1.1-1.2,1.6c-1.2,1.1-2.5,1.6-3.3,1.9c-1.1,0.6-2.2,1.2-3.3,1.8c-0.8,0.2-1.5,0.5-1.9,0.5c-0.3,0.1-1,0.3-1.8,0.6
				c-1.1,0.4-10.3,3.8-11.8,5.6c-0.3,0.5-1.1,1.4-1,2.9c0.1,1.4,0.9,2.5,1.6,3.3c1.2,1.4,2.6,2.2,3.9,2.9c1.1,0.6,2,1,3.9,1.7
				c6.3,2.4,6.1,2.1,7.5,2.9c2.7,1.5,4.5,3.3,5.1,3.9C491.3,305.5,491.1,305.9,492.8,307.3z"/>
		</g>
	</g>
	<g id="XMLID_00000124850659986141448890000011113460035418931131_">
		<g>
			<path class="st8" d="M452.8,301.8c-0.1,0.3-2.7,10.5-2.3,9.4c0.2-0.5,0.1-0.5,0.3-1c0.3-0.8,1.8-3.2,2.6-5.3
				c0.8-2.2,0.6-2.3,1.3-4.1c0.3-0.9,0.8-1.8,0.9-2.1c0.3-0.7,0.7-1.3,1-2c0.1-0.3,0.8-1.9,2.8-2.6c0.4-0.2,1.5-0.5,2.9-0.2
				c1.2,0.2,1.7,0.8,2.8,1.6c2.5,1.7,5.2,2.3,5.3,2.1c0.1-0.2-1.7-0.8-3-2.6c-0.1-0.2-1.9-2.6-0.9-3.5c0.3-0.4,0.9-0.4,1.6-0.5
				c0.5,0,1.6,0,3.3,0.6c2,0.8,2.1,1.4,3.5,1.7c1.3,0.2,2.7,0,2.7-0.2s-1.1-0.4-2.8-1.1c-2.1-0.9-1.8-1.4-3.2-1.7
				c-1.6-0.5-2.7,0-3.9-0.8c-0.2-0.2-0.5-0.4-0.5-0.7c0.1-0.5,1.7-0.8,2.4-0.8c1.3-0.2,1.8-0.1,4.2,0c2.6,0.1,2.7,0,3.6,0.2
				c0.5,0.1,1.2,0.3,2.7,0.8c1.3,0.4,1.9,0.5,2.5,0.8c0.6,0.2,2.1,0.8,3.9,1.6c0.3,0.2,0.8,0.4,1.5,0.7c0.9,0.4,1.8,0.7,1.9,0.5
				c0.2-0.2-1-1.5-2.7-2.3c-0.6-0.3-1.2-0.5-2.4-0.9c-2.1-0.7-3.1-0.8-3.1-1s1.1-0.2,5.9,0c1.4,0.1,2.8,0.2,4.2,0.3
				c2,0.4,3.7,0.7,5,0.8c1,0.2,2.1,0.2,3.4,0.2c0.4,0,2.3-0.2,2.3-0.5c0-0.1-0.2-0.3-4.7-1.1c-2.1-0.4-3.3-0.6-4.3-0.7
				c-1.9-0.2-3.4-0.3-6.4-0.4c-2.4-0.1-2.6,0-6.4-0.1c-4.9-0.1-3.8-0.2-4.7-0.2c-1.1,0-3.2,0.1-5.7-0.4c-0.7-0.2-1.3-0.3-1.3-0.5
				c0-0.2,0.8-0.5,2.7-0.9c1.7-0.4,2.6-0.6,3.2-0.8c0.4-0.2,2.1-0.5,3.9-1.3c0.8-0.3,1-1.4,0.8-1.4c-1.7,0.3-2.1,0.6-4,1.1
				c-1.2,0.2-2.3,0.5-2.5,0.2c-0.2-0.2,0.8-0.8,2.8-2.3c2.1-1.5-1.7-0.4-3.4,1c-2.1,1.6-2.5,1.8-2.8,2c-1.2,0.5-2.1,0.7-3,0.8
				c-0.8,0.2-1.7,0.2-2.5-0.2c0,0,0,0-0.1,0c-0.6-0.4-1.1-1-1.1-1.4c0-0.5,0.6-0.5,1.5-1.4c1-0.9-1.2-0.3-2-0.5
				c-0.6-0.2-0.3-1.2-1.3-3.4c-0.5-1.2-0.9-1.4-1.1-2.4c-0.3-1.1-0.2-1.9-0.1-2.5c-0.2-2.3-0.5-2.8-0.7-2.8
				c-0.4-0.1-0.9,1.1-1.1,2.1c-0.2,0.9-0.1,1.6,0.2,2.7c0.3,1.3,0.6,2.3,0.9,3.2c0.4,1.2,0.7,1.8,1,2.5c0.6,1.3,1,1.7,0.9,2.1
				c-0.3,0.8-1.6,1-2.1,1.1c-1.7,0.3-3.3-0.3-3.9-0.6c-1.3-0.7-2.7-1.6-4.1-3c-0.8-0.8-0.7-1-2.1-2.6c-1.5-1.7-1.9-2.1-3.3-3.7
				c-1.5-1.8-2.2-2.6-2.7-3.5c-1.4-2.5-0.2-3.2-1.2-6.5c-0.9-2.9-2.7-5.6-2.7-5.8c0,0,0,0,0,0.1c-0.1,0.7-0.2,1.7,0.2,2.9
				c0.3,0.8,0.4,0.9,0.8,1.9c0.3,0.7,0.4,1.3,0.7,3.6c0.3,2.6,0.1,2.4,0.3,3.1c0.4,1.4,1.2,2.5,2,3.5c0.5,0.7,1.1,1.4,2.4,2.7
				c1.7,1.9,2.4,2.4,2.3,2.5c-0.1,0.1-0.9-0.4-4.6-2.9c-1.8-1.3-3-2.4-3.9-3.2c-1.5-1.4-2.1-2.4-3.9-3.5c-1.2-0.8-2.7-1.4-2.9-1.2
				c-0.2,0.2,0.8,1,2.7,2.9c2.1,2.1,1.9,2,3.2,3.1c2,1.8,3.6,2.9,5.1,4.1c1.3,0.9,3,2,5.1,3.3c2.9,1.7,4.4,3,4,3.7
				c-0.3,0.5-1.3,0.3-3.9,0.3c-0.8,0-1.5,0.1-2.2,0.1c-4.1,0.2-4.6,1.1-7.2,1c-1.6-0.1-2.9-0.6-5.6-1.7c-2.5-1-3.4-1.7-3.5-1.6
				c-0.2,0.2,3,3.4,7.4,3.9c1.5,0.2,3.3,0,3.9,0c4.2-0.3,4.6-0.4,5.8-0.3c1.2,0.1,3.9,0.2,4.1,1c0.2,0.6-1.4,1.4-3.1,2.3
				c-1.9,1.1-4.3,2.6-6.9,4.8c-2.1,1.4-3.9,2.4-5.3,3c-2.5,1.1-4.8,1.9-5.2,2c-0.7,0.2-2.6,0.8-5.1,1.5c-1.7,0.5-2.5,0.8-2.4,0.9
				c0.1,0.3,2.1,0.3,3.1,0.2c1.7-0.1,3.1-0.4,4.1-0.6c3.5-1.2,6.1-2.5,7.9-3.5c2.1-1.2,3.9-2.6,6.9-4.7c1.9-1.4,3.5-2.6,3.8-2.4
				c0.1,0.1-0.2,0.4-1.2,2c-1.1,1.7-1,1.7-1.3,2c-1.2,1.6-2.5,2.3-2.3,2.4c0.2,0.2,1.1-0.2,1.8-0.5c0.4-0.2,1.1-0.6,2-1.6
				c0.2-0.2,0.6-0.8,1.4-2c1-1.7,1.1-2.2,2-2.7c0.3-0.2,1.1-0.8,1.9-0.5c0.5,0.2,0.8,0.7,0.9,1.1c0.3,0.5,0.4,1.3,0.3,2.4
				c-0.2,1.1-0.5,2-0.9,2.8c-0.4,0.8-1,1.5-2.2,2.9c-1.5,1.8-2.6,2.9-2.6,2.9c-0.3,0.2-2.9,3-4.9,5.2c-2.7,2.9-3.9,4.4-3.7,4.6
				c0.3,0.3,2.3-0.8,3.8-2.1c1.1-1.1,1.6-2.1,2-2.8c1.4-1.3,2.7-2.6,4.1-3.9c0.3-0.5,0.7-0.8,0.9-1.1c0.2-0.2,0.4-0.6,0.9-1.1
				c0.6-0.7,0.9-1,0.9-0.9C453.2,299.9,453,301,452.8,301.8z"/>
		</g>
	</g>
	<g id="XMLID_00000029739579996475376580000002169828774230167209_">
		<g>
			<path class="st8" d="M421.3,289.8c0.1,0.3,1.8,0.5,3.2,0.3c0.5-0.1,0.6-0.2,1.2-0.3c1.1-0.2,2-0.1,2.3,0c1,0.1,2.2-0.2,4.7-0.5
				c2.7-0.5,2.7-0.7,5.1-1c1.2-0.2,2.4-0.2,2.7-0.3c0.9-0.1,1.7-0.1,2.7-0.2c0.3-0.1,2.4-0.3,4.5,1c0.4,0.3,1.5,1.1,2,2.2
				c0.6,1.2,0.3,2.2,0.2,3c-0.3,1.4-1,2.2-1.8,3.1c-0.6,0.7-0.8,3.2-0.3,3.5c0.4,0.3,2.7-3.1,4.1-5c0.8-1.1,1.8-2.6,3.1-2.4
				c0.6,0.1,0.9,0.5,1.5,1.1c0.3,0.4,1.1,1.3,1.5,2.9c0.5,2-0.2,2.3,0.5,3.6c0.6,1.1,1.6,2.1,1.9,2c0.3-0.1-0.3-1.1-0.7-2.8
				c-0.4-2.1,0.3-2.1-0.3-3.4c-0.6-1.5-1.7-2.2-1.5-3.5c0-0.2,0.1-0.6,0.3-0.7c0.6-0.2,1.8,1,2.4,1.5c0.9,0.9,1.2,1.4,2.7,3.3
				c1.5,2,1.7,2.1,2.1,2.9c0.3,0.5,0.4,1.1,0.9,2.5c0.4,1.2,0.6,1.7,0.8,2.3c0.2,0.6,0.6,2,0.9,3.8c0.1,0.3,0.1,0.8,0.3,1.5
				c0.3,0.9,0.4,1.7,0.7,1.7c0.3,0.1,0.9-1.5,0.7-3.2c-0.1-0.6-0.3-1.1-0.6-2.3c-0.7-2-1.1-2.9-0.9-2.9s-1.4-4.5-2-5.2
				c-0.8-0.9-2.1-2.5-3.2-4.7c-0.3-0.6-0.5-1.1-0.3-1.3c0.3-0.2,0.9,0.4,2.7,1.7c1.5,1.1,2.2,1.7,2.8,2.1c0.4,0.3,1.9,1.4,3.8,2.5
				c0.8,0.5,3.5,2.1,3.7,1.9c0.2-0.2-1.6-1.7-1.9-1.9c-1.4-1.1-2.1-1.4-3.6-2.6c-1-0.8-2-1.6-1.9-1.8c0.2-0.2,1.4,0.2,4.2,1.1
				c2.8,0.8,4.2,1.1,5.5,1c0.8,0,2.2-0.2,2.1-0.5c0-0.4-1.9-0.9-2.8-1.1c-1.5-0.4-1.9-0.2-3.4-0.4c-0.9-0.2-2.1-0.5-4.5-1.1
				c-2.9-0.8-3.5-1.1-3.9-1.3c-1.3-0.7-2-1.3-2.7-2c-0.6-0.5-1.3-1.3-1.4-2V288c-0.1-0.7,0.3-1.4,0.7-1.6c0.5-0.2,0.9,0.2,2.3,0.5
				c1.5,0.4,2.7,0.2,3.3,0.1c0.6-0.1,1.5-0.2,2.1-0.8c0.8-0.5,1.3-1.4,1-1.6c-0.2-0.2-1,0.2-1.8,0.5c-1,0.5-1.1,0.6-1.6,0.8
				c-1.4,0.5-3.6-0.1-3.9-0.8c-0.3-0.6,1-0.8,2.7-2.6c0.9-1,0.9-1.4,1.8-2.1c0.9-0.7,1.9-1.1,2.5-1.3c2.3-1.3,2.5-1.7,2.4-2
				c-0.3-0.4-1.8-0.2-2.9,0.2c-1,0.3-1.6,0.8-2.7,1.5c-1.2,0.8-2,1.7-2.7,2.3c-0.9,1-1.5,1.4-1.9,2c-0.9,1.1-1,1.7-1.7,1.7
				c-0.9,0.1-2-0.8-2.4-1.2c-1.4-1.2-1.7-2.7-1.9-3.3c-0.2-1.3-0.1-2.9,0.5-4.7c0.3-1,0.5-1.1,1.4-2.9c0.9-2,0.9-2.5,1.7-4.4
				c0.9-2,1.3-3.1,1.9-3.8c1.7-2.3,3.2-1.7,6-4.1c2.5-2.1,4.1-4.9,4.2-5c0,0,0,0,0,0.1c-0.8,0.2-1.9,0.7-2.8,1.6
				c-0.7,0.6-0.7,0.8-1.4,1.6c-0.5,0.5-1.1,1-3.3,2.3c-2.5,1.5-2.4,1.2-3,1.7c-1.2,1.1-1.8,2.2-2.4,3.2c-0.4,0.8-0.7,1.6-1.3,3.2
				c-0.8,2.3-1,3.1-1.1,3c-0.2-0.1-0.3-1,0.1-5.1c0.2-2,0.5-3.5,0.9-4.6c0.5-1.8,1.1-2.9,1.1-4.7c0-1.3-0.3-2.8-0.6-2.9
				c-0.3-0.1-0.5,1.1-1.2,3.6c-0.8,2.7-0.9,2.4-1.2,4c-0.6,2.4-0.8,4.3-0.9,6c-0.1,1.5-0.3,3.4-0.2,5.6c0.1,3.2-0.3,4.9-1.2,5
				c-0.6,0.1-3-0.2-3.7,0.3c-0.5,0.5-14.1,0.1-13.3,0.5c0.5,0.2,4,0.9,5.7,0.9c2.4,0,2.9-0.2,4,0.2c0.4,0.2,1.6,2.2,1.3,2.6
				c-0.4,0.5-1,1-2.3,1.4c-1.2,0.5-2.4,0.6-3.5,0.6c-1.1,0.1-4.3,1-4.2,1.1c0.1,0.3-1.1,0.7-2.1,0.9c-0.3,0.1-1.2,0.3-2.7,0.5
				c-1.4,0.2-1.5,0.1-3,0.3c-1.2,0.2-1.1,0.2-2.3,0.4c-2,0.2-2.3,0.2-3.5,0.4C423,289,421.3,289.5,421.3,289.8z"/>
		</g>
	</g>
	<g id="XMLID_00000062188423005688856850000004746885566404172972_">
		<g>
			<path class="st9" d="M582.5,442c0.8,2.3,1.6,3.3,1,4.1c-0.6,0.8-2.1,0.8-3.3,0.6c-0.5-0.2-1.8-0.3-3.4,0.2
				c-1.6,0.5-2.6,1.5-2.9,2c-0.8,0.5-1.5,1.1-2.2,1.5c-1.9,2.1-2.8,3.1-3,3c0,0,0,0,0-0.1c0.4-2.5,1.4-4,2.2-4.8
				c1.5-1.6,3.2-2.2,3.4-3.8c0.2-0.9-0.2-1.7-0.4-2.1c-0.3-0.3-0.9-0.8-1.9-1.2c-1.1-0.5-2.1-0.4-2.6-0.3c-0.8-0.2-2.1-0.5-3.9-0.3
				c-1.9,0.2-3.3,0.9-3.9,1.4c-0.8,0.2-1.9,0.5-3.2,1.4c-1.5,1.1-2.4,2.3-2.8,2.9c-1.5,1.5-2.4,2.2-2.5,2.1v-0.1
				c0-0.7,0.1-1.7,0.5-2.9c0.4-1.1,1-1.8,1.5-2.3c0.5-0.5,1.2-1.3,2.4-2c1-0.8,2.6-1.7,4.7-2.4c2.1-0.7,4-0.8,5.3-0.9
				c2.1,0.2,3.7,0.5,4.9,0.8c1.8,0.5,2.7,0.7,3.7,1.4c1.5,1.1,1.8,2.3,2.1,2.2c0.3-0.1,0.3-0.8-0.1-3.6c-0.2-1.3-0.3-2.3-0.3-3
				c-0.2-2.2,0-4.1,0.3-5.4c0.3-2,0.6-3.7,1.6-5.7c1.1-2,2.1-3.3,2.1-3.3c1.1-1.4,1.8-1.8,1.9-2.7c0-1.2-1.2-2-1.4-2.2
				c-2-1.4-4.7-0.5-5.1-0.4c-2.7,1-4.3,1.6-4.3,1.6s-1.6,0.1-4.6,0.2c-0.9-0.4-1.8-0.8-2.7-1.1c-1.8-1.7-4.1-2.3-5.7-1.6
				c-1.2,0.5-1.7,1.8-2.1,2.8c-0.7,1.7-0.8,3.2-0.7,4c-0.1,1.2-0.3,2.4-0.3,3.6c0.7,0.9,0.6,1.9,0.2,2.2s-1.5,0.1-2.1-0.9
				c-0.2-0.4-0.3-1.1-0.5-1.9c-0.4-2.3,0.1-3.2-0.2-5.6c-0.1-1.1-0.3-2.3-0.9-3.6c-0.3-0.8-0.9-1.8-2.1-2.6
				c-1.5-1.1-3.1-1.1-3.8-1.1c-1.8-0.1-3.2,0.5-3.5,0.5c-2.7,1.1-2.7,2.9-5.5,4c-1.6,0.7-3.4,0.9-3.6,0.5c-0.2-0.3,1.1-1.2,2.3-1.9
				c0.4-0.5,1-1,1.6-1.7c0.3-0.4,1-1.4,1.6-2.9c0.4-1.1,0.8-2,0.8-3.2c-0.1-1.3-0.6-2.3-0.9-2.9c-0.3-0.4-0.9-0.8-1.7-1.2
				c-2.1-1-4.5-0.2-5.5,0.1c-1.4,0.5-1.8,0.8-6.6,4.1c-2.8,1.9-2.5,1.7-2.9,2c-2.7,2.1-3.1,3.2-6.2,6.2c-3,2.9-3.3,2.5-5.3,4.8
				c-2.2,2.5-3.3,4.5-3.7,4.4c-0.3-0.2-0.2-1.7,0.3-2.9c0.1-0.2,0.1-0.3,0.2-0.5c0.8-1.6,2.1-2.8,2.4-3.1c2.3-2.1,3.4-3.2,3.6-3.5
				c0.4-0.5,1.3-1.7,2.8-3c0.7-0.5,1.1-1,1.5-1.4c0.3-0.4,0.6-0.8,0.8-1.3c0.1-0.2,0.3-1.3-0.2-2c-0.4-0.7-1.2-0.7-2.1-1.1
				c-1.2-0.5-1.3-1.3-2.8-2.7c-2.1-2-3.2-2.9-3.9-3.3c-1.6-0.8-2.1-0.5-4.5-1.7c-0.5-0.2-2.8-1.4-2.7-1.9c0.2-0.4,1.9-0.2,2.9,0
				c0.9,0.2,1.5,0.5,2,0.6c3.3,1.3,3.3,0.9,4.6,1.6c2,1.1,1.5,1.7,3.9,3.5c1,0.8,2.2,1.6,4.1,2c0.8,0.2,2.4,0.5,4.3,0
				c2.5-0.7,3.9-2.5,5.3-4.4c0.9-1.2,1.9-2.5,2.4-4.4c0.4-1.9,0.3-3.4,0.1-4.3c-0.4-0.8-1-2-1.9-3.4c-1.6-2.7-2.5-4.1-3.8-5.1
				c-1.5-1.2-3.3-1.8-5.9-2.7c-0.2-0.1-1.5-0.5-3.3-1.4c-1.3-0.7-1.8-1.1-2.1-1.7c-0.4-0.8-0.3-1.6-0.3-2.1c0.8,0.2,1.5,0.5,2.4,0.8
				c1.5,0.5,2.7,1.2,3.8,1.8c0,0,1.9,0.5,5.4,1.4c1.1,0.5,2.7,1.5,4.1,3.1c1.4,1.6,0.9,1.9,3,5c0.9,1.3,2.1,2.9,4,4.5l0,0
				c0,0,2,0.9,3.8,1.1c0.4,0,1.8,0.2,3.2-0.5c2.1-0.8,3.1-2.8,3.9-4.4c0.5-1,0.7-1.7,1.6-5.5c1.2-4.8,1.4-5.6,2.3-6.8
				c0.5-0.7,1.7-2,3.7-2.6c1.3-0.4,3-0.5,3.3,0.1c0.3,0.8-2.4,2.5-2.7,2.7c-1.5,1.6-2.1,2.9-2.4,3.9c-0.3,0.9-0.2,1.5-0.4,2.9
				c-0.3,1.7-0.7,3.2-0.9,4.1c-0.1,1.1-0.1,2.3-0.2,3.5c0.2,2.3,0.9,3.1,1.5,3.3c1.1,0.5,2.1-0.4,4.5-0.8c3.3-0.7,5.9,0.1,6.8,0.3
				c1.2,0.3,3.3,1.1,5.3,2.8c0.9,1.4,2,2.6,2.9,4c0.2,0.5,0.9,2,2.7,2.9c0.6,0.3,1.9,0.9,3.3,0.6c2.7-0.6,4.4-4.1,4.5-4.1l1.7-2.8
				c0.3-0.2,0.9-0.2,1.6,0.1c-0.3,0.9-0.5,1.9-0.8,2.8c-0.4,0.8-0.8,1.5-1.2,2.2c-0.7,0.9-1.3,1.7-2,2.6c-0.8,0.2-2,0.7-3.1,1.7
				c-0.5,0.5-1.5,1.4-1.7,2.6c-0.1,0.4-0.3,1.3,0.2,2c0.3,0.7,1,1,1.8,1.4c1.3,0.6,1.8,0.5,3.4,1c1.2,0.4,1.8,0.6,2.1,1
				c1.3,1.4,0.3,4.1-0.3,5.7c-0.9,2.6-1.6,2.6-3.1,5.6c-1.2,2.6-1.8,4.7-2.1,5.8c-0.4,1.9-0.9,3.8-0.9,6.5
				C581.6,437.7,581.7,439.7,582.5,442z"/>
		</g>
		<g>
			<path class="st10" d="M588.2,398.6c-0.4,0.8-0.8,1.5-1.2,2.2c-0.7,0.9-1.3,1.7-2,2.6c-0.8,0.2-2,0.7-3.1,1.7
				c-0.5,0.5-1.5,1.4-1.7,2.6c-0.1,0.4-0.3,1.3,0.2,2c0.3,0.7,1,1,1.8,1.4c1.3,0.6,1.8,0.5,3.4,1c1.2,0.4,1.8,0.6,2.1,1
				c1.3,1.4,0.3,4.1-0.3,5.7c-0.9,2.6-1.6,2.6-3.1,5.6c-1.2,2.6-1.8,4.7-2.1,5.8c-0.4,1.9-0.9,3.8-0.9,6.5c0,1.1,0.1,3,0.9,5.3
				c0.8,2.3,1.6,3.3,1,4.1c-0.6,0.8-2.1,0.8-3.3,0.6c-0.5-0.2-1.8-0.3-3.4,0.2c-1.6,0.5-2.6,1.5-2.9,2c-0.8,0.5-1.5,1.1-2.2,1.5
				c-1.9,2.1-2.8,3.1-3,3c0,0,0,0,0-0.1c0.4-2.5,1.4-4,2.2-4.8c1.5-1.6,3.2-2.2,3.4-3.8c0.2-0.9-0.2-1.7-0.4-2.1
				c-0.3-0.3-0.9-0.8-1.9-1.2c-1.1-0.5-2.1-0.4-2.6-0.3c-0.8-0.2-2.1-0.5-3.9-0.3c-1.9,0.2-3.3,0.9-3.9,1.4
				c-0.8,0.2-1.9,0.5-3.2,1.4c-1.5,1.1-2.4,2.3-2.8,2.9c-1.5,1.5-2.4,2.2-2.5,2.1v-0.1c0-0.7,0.1-1.7,0.5-2.9c0.4-1.1,1-1.8,1.5-2.3
				c0.5-0.5,1.2-1.3,2.4-2c1-0.8,2.6-1.7,4.7-2.4c2.1-0.7,4-0.8,5.3-0.9c2.1,0.2,3.7,0.5,4.9,0.8c1.8,0.5,2.7,0.7,3.7,1.4
				c1.5,1.1,1.8,2.3,2.1,2.2c0.3-0.1,0.3-0.8-0.1-3.6c-0.2-1.3-0.3-2.3-0.3-3c-0.2-2.2,0-4.1,0.3-5.4c0.3-2,0.6-3.7,1.6-5.7
				c1.1-2,2.1-3.3,2.1-3.3c1.1-1.4,1.8-1.8,1.9-2.7c0-1.2-1.2-2-1.4-2.2c-2-1.4-4.7-0.5-5.1-0.4c-2.7,1-4.3,1.6-4.3,1.6
				s-1.6,0.1-4.6,0.2c-0.9-0.4-1.8-0.8-2.7-1.1c-1.8-1.7-4.1-2.3-5.7-1.6c-1.2,0.5-1.7,1.8-2.1,2.8c-0.7,1.7-0.8,3.2-0.7,4
				c-0.1,1.2-0.3,2.4-0.3,3.6c0.7,0.9,0.6,1.9,0.2,2.2c-0.4,0.3-1.5,0.1-2.1-0.9c-0.2-0.4-0.3-1.1-0.5-1.9c-0.4-2.3,0.1-3.2-0.2-5.6
				c-0.1-1.1-0.3-2.3-0.9-3.6c-0.3-0.8-0.9-1.8-2.1-2.6c-1.5-1.1-3.1-1.1-3.8-1.1c-1.8-0.1-3.2,0.5-3.5,0.5c-2.7,1.1-2.7,2.9-5.5,4
				c-1.6,0.7-3.4,0.9-3.6,0.5c-0.2-0.3,1.1-1.2,2.3-1.9c0.4-0.5,1-1,1.6-1.7c0.3-0.4,1-1.4,1.6-2.9c0.4-1.1,0.8-2,0.8-3.2
				c-0.1-1.3-0.6-2.3-0.9-2.9c-0.3-0.4-0.9-0.8-1.7-1.2c-2.1-1-4.5-0.2-5.5,0.1c-1.4,0.5-1.8,0.8-6.6,4.1c-2.8,1.9-2.5,1.7-2.9,2
				c-2.7,2.1-3.1,3.2-6.2,6.2c-3,2.9-3.3,2.5-5.3,4.8c-2.2,2.5-3.3,4.5-3.7,4.4c-0.3-0.2-0.2-1.7,0.3-2.9c0.1-0.2,0.1-0.3,0.2-0.5
				c0.8-1.6,2.1-2.8,2.4-3.1c2.3-2.1,3.4-3.2,3.6-3.5c0.4-0.5,1.3-1.7,2.8-3c0.7-0.5,1.1-1,1.5-1.4c0.3-0.4,0.6-0.8,0.8-1.3
				c0.1-0.2,0.3-1.3-0.2-2c-0.4-0.7-1.2-0.7-2.1-1.1c-1.2-0.5-1.3-1.3-2.8-2.7c-2.1-2-3.2-2.9-3.9-3.3c-1.6-0.8-2.1-0.5-4.5-1.7
				c-0.5-0.2-2.8-1.4-2.7-1.9c0.2-0.4,1.9-0.2,2.9,0c0.9,0.2,1.5,0.5,2,0.6c3.3,1.3,3.3,0.9,4.6,1.6c2,1.1,1.5,1.7,3.9,3.5
				c1,0.8,2.2,1.6,4.1,2c0.8,0.2,2.4,0.5,4.3,0c2.5-0.7,3.9-2.5,5.3-4.4c0.9-1.2,1.9-2.5,2.4-4.4c0.4-1.9,0.3-3.4,0.1-4.3
				c-0.4-0.8-1-2-1.9-3.4c-1.6-2.7-2.5-4.1-3.8-5.1c-1.5-1.2-3.3-1.8-5.9-2.7c-0.2-0.1-1.5-0.5-3.3-1.4c-1.3-0.7-1.8-1.1-2.1-1.7
				c-0.4-0.8-0.3-1.6-0.3-2.1c0.8,0.2,1.5,0.5,2.4,0.8c1.5,0.5,2.7,1.2,3.8,1.8c0,0,1.9,0.5,5.4,1.4c1.1,0.5,2.7,1.5,4.1,3.1
				c1.4,1.6,0.9,1.9,3,5c0.9,1.3,2.1,2.9,4,4.5l0,0c0,0,2,0.9,3.8,1.1c0.4,0,1.8,0.2,3.2-0.5c2.1-0.8,3.1-2.8,3.9-4.4
				c0.5-1,0.7-1.7,1.6-5.5c1.2-4.8,1.4-5.6,2.3-6.8c0.5-0.7,1.7-2,3.7-2.6c1.3-0.4,3-0.5,3.3,0.1c0.3,0.8-2.4,2.5-2.7,2.7
				c-1.5,1.6-2.1,2.9-2.4,3.9c-0.3,0.9-0.2,1.5-0.4,2.9c-0.3,1.7-0.7,3.2-0.9,4.1c-0.1,1.1-0.1,2.3-0.2,3.5c0.2,2.3,0.9,3.1,1.5,3.3
				c1.1,0.5,2.1-0.4,4.5-0.8c3.3-0.7,5.9,0.1,6.8,0.3c1.2,0.3,3.3,1.1,5.3,2.8c0.9,1.4,2,2.6,2.9,4c0.2,0.5,0.9,2,2.7,2.9
				c0.6,0.3,1.9,0.9,3.3,0.6c2.7-0.6,4.4-4.1,4.5-4.1l1.7-2.8c0.3-0.2,0.9-0.2,1.6,0.1C588.7,396.7,588.5,397.7,588.2,398.6z"/>
		</g>
	</g>
	<path class="st11" d="M688.4,494c0.5-1.9-1.7-2.6-1.9-5.2c-0.1-2,1-4.3,3.1-5.2c0.4-0.2,1.6-0.8,2.4-0.3c1.4,0.8-0.9,3.7,0.7,6
		c0.9,1.5,3.2,2.4,5.2,2.3c2.3-0.2,4.4-1.4,5.3-3.5c0.9-2,2.8-3.3,5.1-3.5c2-0.2,4.4,0.5,5.2,2c0.5,1,0.1,2.5-0.9,5.5
		c-0.3,1.3-0.7,2-0.4,3c0.3,1.1,0.9,2,1.5,2.6c1.5,0.8,2.6,0.9,3.3,0.8c2.1-0.4,2.7-2.8,4.7-2.7c0.6,0,1.4,0.2,1.5,0.7
		c0.3,0.9-2.2,1.9-5.2,4.7c-1.6,1.5-2.8,2.7-2.4,3.5c0.5,1.1,3.4,1.1,3.9,1.1c1.2-0.1,2.7-0.3,5.4-1.8c1.5-0.8,3.6-2,5.9-3.8
		c0.7-0.2,3.5-1.1,6.3,0.2c1.5,0.7,2.5,1.7,2.9,2.3c1.1,1.4,1.5,2.7,1.7,3.5c-0.4,0.8-2.8,0.8-3.3,0.3c-1.3-1.1-2-1.7-3.2-1.8
		c-0.9-0.1-1.7,0.2-2.7,0.7c-0.7,0.3-2,0.9-2.8,2.2c-0.5,0.7-0.7,1.4-0.8,1.8c0,0.4,0,0.9,0.3,1.4c0.5,0.8,1.4,0.8,3.8,1.7
		c2,0.7,2.7,0.8,2.7,1.4c0.2,0.6-0.7,1.3-1.4,1.7c-1.8,0.1-3.2,0-4-0.2c-0.4-0.1-1.1-0.2-1.5,0.2c-0.3,0.2-0.3,0.7-0.3,1.1
		c0.3,0.9,1.3,0.8,2.1,1.9c0.5,0.6,0.9,1.7,0.5,2.1c-0.4,0.5-1.9,0.4-3.3-0.4c-0.4-0.2-2.2-0.8-3.6,0c-0.9,0.5-1.1,1.3-1.5,2.9
		c-0.4,1.5-0.6,3-0.8,4.2c-0.2,1.6-0.2,2.2-0.7,2.9c-0.4,0.6-1.4,1.6-2.1,1.4c-0.9-0.2-1.1-2.1-1.2-2.8c-0.3-2.9,1.1-3.8,0.5-5.9
		c-0.1-0.4-0.6-1.9-2.1-2.8c-0.1-0.1-2.1-1.2-4.3-0.6c-1,0.3-1.7,1-3.2,2.3c-1.6,1.5-1.5,1.8-2.4,2.3c-1.2,0.6-3,1.1-4.4,0.5
		c-0.5-0.2-0.9-0.8-1.8-1.8c-1.2-1.4-1.1-1.7-1.7-2c-1.1-0.5-2.7-0.1-3.6,0.7c-0.9,0.8-1.2,1.8-1.5,2.8c-0.5,2.2,0.3,3.2-0.3,3.6
		c-0.8,0.5-2.9-0.5-3.7-1.9c-0.6-1-0.1-1.4-0.7-2.8c-0.3-0.8-0.8-1.9-2.1-2.5c-1.2-0.5-2.7-0.6-3.9-0.1c-1.1,0.5-1,1.1-2.3,2.1
		c-1.3,1-3.3,2-4,1.5c-0.9-0.6,1.4-2.9,0.2-4.4c-0.7-0.9-2.2-1.1-4.1-1.4c-2.7-0.3-3.9,0.2-4.2-0.4c-0.5-0.7,0.6-2.3,2.1-3.1
		c1-0.5,2.2-0.5,4.6-0.4c2.5,0.1,2.8,0.4,4.1,0.3c1.1-0.1,2.7-0.4,4.5-1.4c0.3-0.1,3.3-1,3.9-3.3c0.1-0.3,0.3-1.2-0.1-2
		c-0.9-1.7-3.3-2-4.8-2.3c-2.6-0.4-4.8,0.1-6.2,0.5c-1.5,1-3.2,1.1-3.7,0.6c-0.5-0.5-0.1-1.6,0.5-2.3c1-1.1,2.7-0.9,2.9-0.9
		c2.2-0.2,3.7-0.8,3.8-1.4c0.1-0.4-0.3-0.7-0.5-0.9c-1.1-1-2.5-0.5-3.4-1.2c-1-0.8-1.1-2.8-0.3-3.3c0.9-0.5,2.1,0.8,4.8,0.9
		c2.2,0.1,3.9-0.8,4.6-1.2C686.4,496.2,688,495.4,688.4,494z"/>
	<path class="st12" d="M848.2,503.4c0.9-0.4,2.3-1,4.2-0.6c1.5,0.3,2.4,1.1,2.7,1.4c0.7,0.6,1,1.1,1.2,1.6c0.9,1.9,0.8,3.7,0.9,5
		c0.1,2.1,1,3.8,2.9,7.2c0.3,0.6,2.4,4.4,3.2,4.4c0.4-0.1,0.3-1.6,0.2-2.4c-0.2-0.9-0.3-1-0.4-1.7c-0.2-1.2,0.3-2.6,0.9-2.6
		c0.6,0,1.1,2,1.4,2.9c0.3,1.1,0.3,2,0.4,2.7c0.1,1.2,0.1,2,0.1,2.3c0,1.9,1.1,3.2,2.8,6.3c2.3,4.2,2.3,5.5,4.5,7.5
		c1.2,1.2,2.3,1.8,3.5,1.8c1.2,0,2.1-0.7,2.2-0.8c1-0.9,0.9-2,0.8-3c-0.1-0.6-0.2-1.7-1.2-2.8c-0.9-1.1-1.9-1.2-1.9-1.9
		c0-0.6,0.7-1.1,1.4-1.2c0.9-0.2,1.9,0,2.7,0.6c0.3,1.1,0.3,2,0.3,2l0,0c0,0,0.3,1.4,0.9,2.6c0.3,0.5,0.9,1.5,2.2,2.3
		c1.5,1,2.2,0.8,3.5,1.7c0.9,0.6,1.3,1.3,1.8,2.3c0.5,0.9,1.5,2.7,1.2,4.9c-0.3,1.4-1,2-0.4,2.8c0.4,0.6,1.4,0.9,2.1,0.9
		c1.4,0.1,1.8-0.7,3.1-0.8c0.8-0.1,1.9,0.2,3.4,1.2c1.8,1.4,3.3,2.7,4.2,3.5c1.9,1.7,2.4,2.3,3.9,3.2c0.9,0.6,0.9,0.5,4,2.2
		c2.8,1.5,1.9,1.1,5.2,2.9c2.7,1.4,3.4,1.8,3.3,2.1c-0.2,0.5-1.9,0.5-3.3,0.3c-1.5-0.2-2.2-0.8-4.4-2c-3.7-2.2-3-1.7-4.5-2.6
		c-2.2-1.4-3.9-2.5-5.6-4.1c-2.6-2.5-3.1-4.1-4.9-4.3c-0.6-0.1-1.6-0.1-2.4,0.5c-0.3,0.2-0.9,0.5-0.9,1.1c0.1,0.5,0.7,0.7,1.5,1.4
		c0.5,0.5,0.9,0.9,1.1,1.2c0.3,0.3,0.8,0.8,1.5,1.4c2.3,2,4,2.5,6.3,4.4c0.6,0.5,1.5,1.2,2.5,2.3c0.9,1,1.7,2,2.7,3
		c2.1,2.3,4.2,4.5,6.3,6.6c1.3,1.1,3,2.9,4.5,5.2c1,1.7,1.6,3.2,2,4.4c0.1,0.3,0.3,1.7-0.3,1.9c-0.6,0.2-1.9-1.1-2.4-1.5
		c-0.8-0.8-1.4-1.6-2.6-3.6c-0.4-0.7-0.9-1.7-1.5-2.8c-1.5-1.7-3-3.4-4.5-5.1c-1.2-1.4-2.5-2.9-3.7-4.3c-1.2-1.5-2.7-3.2-4.9-5
		c-1.4-1.1-2.7-2-3.9-2.8c-1-0.6-2.5-1.4-3.9-2.8c-1.1-1.1-1.9-2.2-2.3-3c-0.5-0.4-1.3-0.9-1.6-0.8c-0.4,0.2,0.4,1.7,0.5,1.9
		c0.8,1.4,1.8,2.3,2.4,2.9c0.6,0.6,1.5,1.7,3.1,4c1.2,1.7,2.7,4.1,4.4,7.3c1.4,2.9,2.7,5.8,4.1,8.6c1.1,2,1.7,3.8,2.1,5
		c0.4,1.6,0.4,2.7,0.5,3.6c0.1,1.8-0.1,2.7-0.4,3.5c0,0.1-0.3,0.8-1.1,1.6c-0.4,0.5-0.7,0.8-1.1,0.8c-0.9,0-1.6-1.3-1.7-1.4
		c-0.3-0.7-0.4-1.3-0.3-2.5c0-0.8,0-1.4,0.3-2.3c0.3-1.1,0.7-1.7,0.9-2c0.9-1.7-0.5-3.8-1.9-6.3c-2.5-4.5-1.3-3.7-3.9-8.3
		c-1.2-2.3-2.8-4.9-5-7.7c-2.1-2.2-3.2-4.1-3.9-5.4c-0.3-0.7-1.5-3-3.2-5.1c-0.5-0.6-0.9-1.1-1.8-1.7c-1.1-0.8-1.8-0.7-2.7-1.3
		c-0.7-0.4-1.5-1.1-2-2.5c-0.1-0.5-0.3-1.4-1.1-2.2c-0.4-0.5-1.5-1.4-2.7-1.4c-0.7,0.1-1.5,0.5-1.7,1c-0.2,0.5-0.2,1.1,0.3,1.5
		c0.8,0.9,2.1,0.5,2.9,1.5c0.1,0.1,0.4,0.5,0.3,0.9c-0.1,0.6-0.8,1-1.5,1.1c-0.9,0.2-1.8-0.3-2.2-0.5c-0.9-0.5-1.4-1.3-1.6-1.7
		c-0.5-0.8-0.4-1.4-0.7-3.1c-0.2-1.2-0.3-1.8-0.3-2.3c-0.6-2.1-1.8-2.3-3.2-5c-0.9-1.8-0.9-2.7-2-3c-0.9-0.3-1.9,0-2.6,0.3
		c-0.3,0.2-1.3,0.8-1.2,1.7c0.1,0.6,0.7,1.1,1.3,1.5c0.9,0.7,1.3,0.7,1.5,1.1c0.2,0.5-0.3,1.1-0.9,1.3c-0.9,0.3-2-0.4-2.4-0.6
		c-0.9-0.5-1.2-1.2-1.4-1.5c-0.9-1.1-1-1.8-0.9-2.1c0.1-0.7,0.4-1.1,1.2-2.1c0.8-1,0.9-1,1-1.4c0.1-0.5-0.5-1.4-3.7-2.9
		c-1.1-0.6-2.5-1.5-4.1-2.6c-1.1-0.8-2.8-2-4.7-3.8c-2.2-2-3-3.1-3.4-4.1c-0.3-0.5-0.9-2-0.3-2.3c0.5-0.3,1.6,0.2,2.3,0.7
		c0.9,0.7,1,1.4,1.6,2.3c0.4,0.7,1.1,1.6,2.6,2.5c2,1.5,3.6,2.8,4.9,3.8c5.3,4.1,2.9,2.2,3.9,2.9c2,1.6,2.7,2.3,3.1,2.1
		c0.6-0.2,0.3-1.7-0.3-2.9c-0.7-1.5-1.7-2.3-2.7-3.2c-1.7-1.7-2.5-3.2-3.8-5.7c-0.9-1.9-1.9-3.8-2.5-6.2c-0.3-1.4-0.4-2.6-1.7-3.6
		c-1-0.8-2.2-1.1-3.1-1.1c-1.8-0.2-3.1-0.7-3.3-1.2C846.2,504.2,847.4,503.7,848.2,503.4z"/>
	<path class="st13" d="M1074,584c0.6-0.5,1.7-1.5,1.9-3.2c0.1-1.4-0.4-2.3-0.7-2.8c-0.4-0.8-0.9-1.2-1.3-1.5c-1.7-1.4-3.6-2-5-2.5
		c-2.1-0.8-3.7-2.2-6.7-5c-0.5-0.5-3.9-3.5-3.6-4.1c0.2-0.3,1.7,0.3,2.5,0.7c0.9,0.5,0.9,0.7,1.5,1c1.3,0.5,2.8,0.6,2.9,0.2
		c0.2-0.5-1.8-1.7-2.6-2.1c-1-0.6-2-1-2.7-1.4c-1.2-0.5-2.1-0.8-2.4-0.9c-1.9-0.7-2.9-2-5.7-4.5c-3.7-3.3-5-3.8-6.5-6.3
		c-0.9-1.4-1.2-2.6-0.9-3.5c0.3-1,1.3-1.4,1.5-1.5c1.2-0.5,2.4,0,3.3,0.5c0.6,0.3,1.7,0.8,2.6,2c0.8,1.1,0.7,2,1.4,2.3
		c0.6,0.2,1.3-0.2,1.6-0.7c0.5-0.6,0.5-1.6,0.2-2.3c-1.1-0.6-1.9-1-1.9-1l0,0c0,0-1.4-0.8-2.3-1.7c-0.4-0.5-1.3-1.4-1.8-2.6
		c-0.6-1.6-0.1-2.1-0.6-3.5c-0.4-0.9-0.9-1.5-1.8-2.3c-0.8-0.8-2.4-2.3-4.7-2.7c-1.5-0.3-2.4,0.1-3-0.6c-0.4-0.5-0.5-1.4-0.3-2
		c0.3-1.1,1.2-1.2,1.7-2.2c0.3-0.6,0.4-1.6-0.3-3.2c-0.9-2-1.8-3.6-2.4-4.7c-1.2-2.1-1.6-2.8-2.2-4.3c-0.3-1-0.3-1-1-4.1
		c-0.7-2.9-0.5-1.9-1.5-5.3c-0.7-2.6-0.9-3.4-1.2-3.5c-0.5-0.1-1.1,1.4-1.3,2.6s0.2,2.1,0.9,4.3c1.2,3.8,0.9,3,1.4,4.6
		c0.9,2.3,1.5,4.1,2.7,6c1.8,2.9,3.3,3.9,3,5.5c-0.1,0.5-0.4,1.4-1.2,1.8c-0.3,0.2-0.9,0.6-1.4,0.4s-0.5-0.8-1-1.8
		c-0.3-0.6-0.7-1.1-0.9-1.3c-0.3-0.3-0.6-0.9-1-1.7c-1.4-2.6-1.4-4.1-2.6-6.7c-0.3-0.7-0.9-1.7-1.6-2.9c-0.8-1.1-1.5-2.1-2.3-3.2
		c-1.8-2.6-3.4-5-5-7.4c-0.8-1.5-2.1-3.5-4-5.4c-1.5-1.4-2.9-2.5-4-3.2c-0.3-0.2-1.6-0.8-2-0.5c-0.4,0.5,0.5,1.9,0.9,2.5
		c0.5,0.9,1.2,1.7,3,3.3c0.6,0.5,1.5,1.3,2.4,2.2c1.3,1.8,2.7,3.7,3.9,5.5c1.1,1.5,2.2,3,3.3,4.5c1.2,1.5,2.5,3.4,3.7,5.8
		c0.8,1.5,1.3,2.9,1.8,4.1c0.3,1.1,0.8,2.6,1.8,4.1c0.9,1.4,1.7,2.3,2.4,2.9c0.3,0.6,0.5,1.4,0.3,1.6c-0.3,0.2-1.5-0.9-1.8-1.1
		c-1.2-1.1-1.9-2.3-2.2-2.9c-0.4-0.8-1.4-1.8-3.3-3.9c-1.4-1.5-3.3-3.7-6.3-6.2c-2.6-2.1-5.1-4.3-7.7-6.4c-1.8-1.7-3.4-2.7-4.6-3.5
		c-1.5-0.9-2.7-1.4-3.6-1.7c-1.9-0.8-2.8-0.9-3.7-0.9c-0.1,0-0.9,0-2,0.3c-0.6,0.2-1,0.3-1.1,0.7c-0.3,0.7,0.9,1.8,0.9,1.9
		c0.6,0.5,1.2,0.8,2.5,1.2c0.8,0.2,1.5,0.5,2.5,0.6c1.2,0.2,2.1,0.1,2.4,0c2.1-0.1,3.9,1.8,6,3.8c3.9,3.6,3.4,2.3,7.5,6.1
		c2,1.8,4.2,4.1,6.5,6.8c1.6,2.4,3.3,4.1,4.5,5.1c0.6,0.5,2.7,2.3,4.4,4.4c0.4,0.6,0.9,1.2,1.2,2c0.4,1.2,0.2,1.7,0.5,2.7
		c0.3,0.7,0.7,1.6,2,2.5c0.5,0.2,1.3,0.7,2,1.7c0.3,0.5,1.1,1.7,0.6,2.7c-0.3,0.6-0.9,1.1-1.5,1.1c-0.5,0-1.1-0.2-1.5-0.8
		c-0.7-0.9,0.1-2-0.7-2.9c-0.1-0.2-0.3-0.5-0.9-0.6c-0.6-0.2-1.3,0.3-1.6,0.8c-0.4,0.8-0.2,1.6-0.1,2c0.3,1,0.9,1.6,1.3,1.9
		c0.8,0.7,1.3,0.8,3,1.7c1.2,0.6,1.8,0.8,2.3,1.1c2.1,1.2,1.9,2.3,4.2,4.4c1.5,1.4,2.5,1.7,2.6,2.6c0.1,0.8-0.5,1.5-1.1,2
		c-0.3,0.2-1.3,0.8-2.1,0.3c-0.6-0.3-0.9-1-1.1-1.5c-0.4-0.9-0.3-1.3-0.7-1.5c-0.4-0.3-1.2-0.2-1.5,0.2c-0.6,0.6-0.3,1.7-0.1,2.2
		c0.3,0.9,0.9,1.4,1.2,1.7c0.8,1.1,1.5,1.4,2,1.6c0.7,0.2,1.3,0.1,2.6-0.2c1.2-0.2,1.4-0.5,1.7-0.3c0.6,0.2,1.4,1,1.9,4
		c0.3,1.1,0.9,2.6,1.5,4.3c0.5,1.2,1.3,3,2.5,5.1c1.4,2.5,2.3,3.5,3.3,4.3c0.5,0.4,1.8,1.4,2.3,1.1c0.4-0.3,0.3-1.4,0-2.1
		c-0.4-1-1.1-1.3-2-2.1c-0.6-0.6-1.3-1.5-1.9-2.9c-0.9-2.1-1.8-3.9-2.5-5.3c-2.7-5.8-1.4-3.2-1.9-4.3c-1-2.2-1.5-3-1.3-3.3
		c0.3-0.4,1.9,0.4,2.9,1.2c1.4,1.1,1.9,2.2,2.6,3.3c1.3,2,2.6,3.2,4.8,5.1c1.7,1.4,3.3,2.9,5.7,4.2c1.4,0.8,2.6,1.3,3.3,2.6
		c0.5,1.1,0.4,2.2,0.3,2.9c-0.4,1.5-0.3,2.8,0.3,3.1C1072.5,585.3,1073.5,584.5,1074,584z"/>
	<path class="st13" d="M997.8,495.2c1-0.4,2.8-1.1,5.1-0.5c1.8,0.5,2.8,1.4,3.3,1.7c0.8,0.7,1.1,1.4,1.4,1.8c1,2.2,0.8,4.3,0.8,5.8
		c0,2.4,1,4.4,3.1,8.4c0.3,0.7,2.7,5.2,3.5,5.1c0.5-0.1,0.4-1.8,0.3-2.7c-0.2-1-0.4-1.1-0.4-1.9c-0.1-1.4,0.6-2.9,1.1-2.9
		c0.7,0,1.2,2.3,1.5,3.3c0.3,1.3,0.3,2.3,0.4,3.2c0.1,1.4,0,2.3,0,2.6c-0.1,2.1,1.2,3.7,3.1,7.3c1.6,3.2,1.7,5.7,3.6,7.3
		c0.7,0.6,1.5,0.9,1.8,1c0.8,0.3,2.3,0.9,3.3,0.4c0.8-0.5,0.8-1.4,0.8-2.1c0-0.5-0.1-0.9-0.3-1.4c-0.3-1.1-0.5-1.1-0.5-1.6
		c-0.1-1.1,0.5-1.8,0.8-2.3c0.4-0.6,0.9-1.2,1.7-1.4c1-0.2,2.2,0.1,3.1,0.8c0.2,1.4,0.3,2.3,0.3,2.3c-0.1,0.9-0.1,2.2,0.9,2.9
		c1.2,0.8,2.5,0.2,4.1,1c1.2,0.6,0.9,1.4,2.7,3.8c1.2,1.8,1.4,1.4,2.1,2.6c0.6,1.1,1.7,3.2,1.2,5.6c-0.4,1.7-1.3,2.3-0.7,3.2
		c0.5,0.7,1.6,1.1,2.5,1.1c1.6,0.2,2.1-0.7,3.7-0.8c0.9-0.1,2.2,0.2,4.1,1.5c2.1,1.7,3.8,3.2,4.9,4.2c2.2,2,2.8,2.7,4.5,3.8
		c1,0.8,1.1,0.6,4.7,2.6c3.3,1.8,2.1,1.3,6.1,3.5c3.1,1.7,4,2.2,3.9,2.6c-0.2,0.5-2.3,0.6-4,0.2c-1.7-0.4-2.7-1-5.1-2.5
		c-4.3-2.6-3.5-2-5.2-3.2c-2.6-1.7-4.5-3-6.4-5c-3-2.9-3.4-4.7-5.7-5.1c-0.7-0.1-2-0.1-2.9,0.4c-0.3,0.2-1.1,0.6-1.1,1.2
		c0,0.5,0.8,0.8,1.8,1.7c0.6,0.5,1,1.1,1.2,1.4c0.3,0.4,0.9,1,1.6,1.7c2.7,2.4,4.6,3,7.5,5.2c0.7,0.5,1.8,1.4,2.9,2.7
		c0.9,1.1,2,2.3,3,3.5c2.4,2.7,4.8,5.3,7.2,7.7c1.5,1.4,3.5,3.4,5.1,6.1c1.2,2,1.8,3.8,2.1,5.2c0.1,0.4,0.3,2-0.4,2.1
		c-0.8,0.2-2.2-1.3-2.8-1.9c-0.9-0.9-1.5-1.8-2.8-4.2c-0.4-0.8-1-1.9-1.6-3.2c-1.7-2-3.4-4-5.1-6c-1.5-1.7-2.8-3.3-4.2-5
		c-1.4-1.7-3.2-3.8-5.7-5.9c-1.5-1.3-3.1-2.4-4.5-3.3c-1.2-0.7-2.9-1.7-4.5-3.3c-1.3-1.4-2.1-2.6-2.7-3.5c-0.6-0.5-1.5-1.1-1.9-0.9
		c-0.5,0.2,0.4,1.9,0.6,2.2c0.9,1.7,2.1,2.7,2.7,3.4c0.8,0.8,1.6,2,3.5,4.7c1.3,1.9,3.1,4.7,4.9,8.6c1.5,3.4,3,6.7,4.5,10.1
		c1.3,2.4,1.9,4.4,2.1,5.9c0.4,1.8,0.4,3.2,0.4,4.1c0,2.1-0.3,3.1-0.6,3.9c0,0.1-0.4,0.9-1.4,1.8c-0.6,0.5-0.9,0.8-1.4,0.8
		c-1,0-1.9-1.5-2-1.7c-0.4-0.8-0.4-1.5-0.3-2.9c0-0.8,0.1-1.7,0.4-2.6c0.3-1.2,0.9-2,1.1-2.3c1.1-1.9-0.4-4.4-2-7.4
		c-2.7-5.3-1.3-4.2-4.2-9.7c-1.4-2.6-3.2-5.7-5.6-9c-2.3-2.6-3.7-4.7-4.4-6.4c-0.3-0.8-1.6-3.5-3.5-5.9c-0.5-0.7-1.1-1.4-2.1-2
		c-1.3-0.8-2.1-0.9-3.3-1.6c-0.8-0.5-1.7-1.3-2.2-2.9c-0.1-0.5-0.3-1.6-1.2-2.6c-0.5-0.5-1.6-1.7-3.2-1.7c-0.9,0-1.8,0.5-2.1,1.1
		c-0.3,0.5-0.3,1.2,0.3,1.7c0.9,1.1,2.6,0.7,3.4,1.8c0.1,0.2,0.4,0.5,0.3,1.1c-0.2,0.7-1,1.1-1.8,1.2c-1.1,0.2-2.1-0.5-2.7-0.7
		c-1.1-0.7-1.5-1.5-1.8-2c-0.5-1-0.4-1.6-0.6-3.5c-0.2-1.4-0.2-2.1-0.3-2.7c-0.6-2.5-2-2.7-3.6-5.8c-1-2.1-0.9-3.1-2.1-3.5
		c-1-0.4-2.2-0.1-3.1,0.3c-0.3,0.2-1.6,0.9-1.5,2c0.1,0.7,0.8,1.2,1.5,1.7c0.9,0.8,1.5,0.8,1.6,1.3c0.2,0.5-0.3,1.2-1,1.4
		c-1.1,0.3-2.4-0.5-2.8-0.8c-1-0.7-1.4-1.4-1.5-1.8c-1.1-1.2-1.1-2.1-1-2.5c0.1-0.8,0.6-1.3,1.5-2.4c0.9-1.1,1.2-1.1,1.3-1.5
		c0.1-0.7-0.5-1.7-4.2-3.4c-1.3-0.8-2.9-1.8-4.8-3.2c-1.3-0.9-3.3-2.4-5.4-4.4c-2.6-2.3-3.4-3.6-3.9-4.8c-0.3-0.7-1-2.3-0.3-2.7
		c0.6-0.3,1.9,0.3,2.7,0.9c1.1,0.8,1.1,1.6,1.8,2.7c0.4,0.8,1.3,1.8,2.9,2.9c2.2,1.8,4.2,3.3,5.7,4.5c6.2,4.8,3.4,2.6,4.5,3.5
		c2.3,1.9,3.1,2.7,3.6,2.6c0.7-0.2,0.4-2-0.1-3.3c-0.8-1.7-2-2.6-3.1-3.8c-2-2-2.8-3.8-4.2-6.7c-1-2.3-2.1-4.4-2.7-7.3
		c-0.3-1.7-0.4-3-1.9-4.2c-1.1-0.9-2.7-1.3-3.7-1.4c-2.1-0.2-3.7-0.8-3.9-1.5C995.4,496.2,997,495.6,997.8,495.2z"/>
	<path class="st13" d="M1014.8,516.7c-0.3,0.5-1,1.6-0.9,3.1c0.2,1.2,0.9,2,1.1,2.3c0.4,0.6,0.9,1,1.3,1.2c1.6,1.1,3.3,1.3,4.5,1.6
		c1.9,0.5,3.3,1.5,6.3,3.5c0.5,0.4,3.8,2.6,3.6,3.2c-0.1,0.3-1.5-0.1-2.1-0.3c-0.8-0.3-0.9-0.5-1.5-0.7c-1.1-0.4-2.3-0.2-2.3,0.2
		c0,0.5,1.7,1.2,2.4,1.5c0.9,0.5,1.7,0.7,2.4,0.8c1,0.3,1.8,0.5,2.1,0.5c1.6,0.4,2.7,1.4,5.4,3.3c3.6,2.5,4.7,2.8,6.4,4.8
		c0.9,1.1,1.5,2.1,1.4,2.9c-0.1,0.9-0.7,1.4-0.9,1.5c-0.9,0.6-1.9,0.2-2.7,0c-0.5-0.2-1.5-0.5-2.4-1.4c-0.9-0.9-0.9-1.7-1.5-1.8
		c-0.5-0.2-0.9,0.3-1.2,0.8c-0.3,0.6-0.1,1.4,0.3,2.1c1,0.4,1.7,0.7,1.7,0.7s1.3,0.5,2.2,1.2c0.4,0.3,1.3,1,2,2.1
		c0.8,1.3,0.5,1.8,1.2,2.9c0.5,0.8,1,1.2,1.9,1.7c0.8,0.5,2.3,1.7,4.2,1.8c1.3,0.1,1.9-0.4,2.5,0.2c0.5,0.5,0.7,1.2,0.7,1.7
		c0,1.1-0.7,1.2-0.9,2.1c-0.1,0.5,0,1.4,0.9,2.8c1.2,1.7,2.1,2.9,2.8,3.8c1.4,1.7,1.9,2.3,2.6,3.5c0.4,0.8,0.4,0.8,1.6,3.5
		c1.1,2.4,0.9,1.6,2.2,4.4c1.1,2.3,1.4,2.9,1.6,2.9c0.4,0,0.6-1.3,0.5-2.5c-0.2-1.1-0.6-1.8-1.5-3.6c-1.7-3.2-1.3-2.6-2.1-3.8
		c-1.1-2-2-3.4-3.3-5c-2.1-2.4-3.4-3.1-3.5-4.5c0-0.5,0.1-1.2,0.5-1.7c0.2-0.2,0.5-0.6,0.9-0.5c0.4,0.2,0.5,0.6,1.2,1.4
		c0.3,0.5,0.8,0.8,1,1.1c0.3,0.3,0.7,0.8,1.1,1.4c1.6,2.1,2,3.5,3.4,5.6c0.3,0.5,0.9,1.4,1.9,2.3c0.9,0.8,1.6,1.7,2.5,2.6
		c1.9,2,3.7,4,5.4,5.9c0.9,1.2,2.3,2.8,4.3,4.3c1.5,1.1,2.7,1.8,3.9,2.3c0.3,0.1,1.5,0.5,1.6,0.2c0.3-0.5-0.8-1.7-1.2-2.1
		c-0.6-0.8-1.3-1.3-3.1-2.6c-0.6-0.5-1.4-1-2.3-1.7c-1.4-1.4-2.8-2.9-4.3-4.4c-1.2-1.2-2.3-2.4-3.5-3.6c-1.2-1.1-2.7-2.7-4.1-4.6
		c-0.9-1.2-1.6-2.3-2.2-3.4c-0.4-0.9-1.1-2.1-2.2-3.4c-0.9-1.1-1.8-1.8-2.5-2.3c-0.3-0.5-0.7-1.1-0.6-1.4c0.2-0.3,1.5,0.6,1.6,0.8
		c1.2,0.9,2,1.8,2.4,2.3c0.5,0.6,1.5,1.4,3.3,3.1c1.4,1.2,3.4,2.9,6.2,4.7c2.5,1.6,5,3.2,7.4,4.7c1.7,1.2,3.3,2,4.4,2.5
		c1.4,0.6,2.4,0.9,3.2,1.1c1.6,0.5,2.4,0.5,3.1,0.4c0,0,0.7-0.1,1.5-0.5c0.4-0.2,0.7-0.4,0.8-0.7c0.1-0.7-1-1.4-1.1-1.6
		c-0.6-0.4-1.1-0.5-2.2-0.8c-0.7-0.2-1.3-0.2-2.1-0.2c-0.9,0-1.6,0.2-1.9,0.2c-1.5,0.3-3.3-1.1-5.5-2.6c-3.9-2.7-3.2-1.7-7.1-4.4
		c-1.9-1.4-4.1-3.1-6.5-5.2c-1.8-2-3.3-3.2-4.5-4c-0.6-0.4-2.6-1.7-4.3-3.4c-0.5-0.5-0.9-1-1.3-1.7c-0.7-1.2-1-1.7-0.9-2.3
		c0.1-0.9,1.1-1.1,1-1.7c-0.1-0.4-0.6-0.8-2-1.1c-0.3-0.5-1-1.1-2-1.6c-1-0.6-1.9-0.7-2-1.2c-0.1-0.5,0.4-1,1-1.1
		c0.4-0.1,0.9,0.1,1.3,0.5c0.7,0.8,0.3,1.7,1.1,2.5c0.1,0.1,0.4,0.4,0.8,0.5c0.5,0.1,0.9-0.4,1.1-0.9c0.2-0.7-0.2-1.4-0.3-1.7
		c-0.4-0.8-1-1.3-1.4-1.5c-0.8-0.5-1.2-0.6-2.7-1.1c-1.1-0.4-1.6-0.5-2.1-0.8c-1.9-0.8-1.9-1.7-4.2-3.3c-1.5-1.1-2.3-1.2-2.6-2
		c-0.3-0.7,0.1-1.4,0.4-1.9c0.2-0.2,0.9-0.8,1.6-0.5c0.5,0.2,0.9,0.8,1.2,1.2c0.5,0.8,0.5,1.1,0.9,1.3c0.4,0.2,0.9,0,1.2-0.4
		c0.3-0.6-0.2-1.6-0.3-1.9c-0.4-0.8-1-1.1-1.3-1.3c-0.9-0.9-1.5-1.1-1.8-1.1c-0.6-0.1-1,0.1-2,0.5s-0.9,0.5-1.3,0.5
		c-0.5-0.1-1.3-0.7-2.3-3.3c-0.5-0.9-1.2-2.2-2.1-3.6c-0.6-1-1.6-2.5-3-4.2c-1.6-2-2.5-2.8-3.4-3.4c-0.5-0.3-1.7-1.1-2.1-0.7
		c-0.3,0.3,0.1,1.3,0.4,1.9c0.5,0.8,1.1,1,2,1.7c0.6,0.5,1.3,1.1,2.1,2.4c1.2,1.7,2.2,3.2,3,4.4c3.3,4.7,1.7,2.6,2.3,3.5
		c1.3,1.8,1.8,2.4,1.7,2.7c-0.2,0.4-1.5-0.1-2.6-0.8c-1.3-0.8-1.9-1.7-2.7-2.6c-1.4-1.7-2.7-2.5-4.8-3.9c-1.6-1.1-3.2-2.1-5.4-3.1
		c-1.2-0.5-2.3-0.8-3.1-2c-0.6-0.9-0.8-1.9-0.9-2.6c0-1.4-0.3-2.5-0.9-2.6C1015.6,515.4,1015.1,516.2,1014.8,516.7z"/>
	<path class="st13" d="M1065.3,582.6c-0.8,0.2-2.3,0.4-4-0.2c-1.4-0.5-2.1-1.3-2.5-1.6c-0.5-0.6-0.9-1.1-0.9-1.4
		c-0.7-1.7-0.3-3.1-0.3-4.1c0.1-1.7-0.6-3.2-2-6.2c-0.3-0.5-1.8-3.9-2.5-4c-0.4,0-0.4,1.2-0.4,1.9c0.1,0.7,0.3,0.8,0.3,1.4
		c0,1-0.6,2-1,1.9c-0.5-0.1-0.9-1.8-0.9-2.5c-0.2-0.9-0.2-1.7-0.2-2.3c0-1,0.1-1.7,0.2-1.9c0.2-1.5-0.7-2.7-2-5.4
		c-1.7-3.7-1.6-4.7-3.4-6.8c-1-1.1-2-1.8-3.1-2c-1.1-0.2-2,0.2-2.1,0.3c-1,0.5-1,1.5-1,2.3c0,0.5,0,1.4,0.9,2.4
		c0.8,1,1.6,1.3,1.6,1.8c-0.1,0.5-0.8,0.7-1.4,0.8c-0.9,0-1.8-0.3-2.4-0.9c-0.1-1-0.2-1.6-0.2-1.6l0,0c0,0-0.2-1.2-0.6-2.2
		c-0.3-0.5-0.8-1.4-1.9-2.3c-1.3-1.1-2.1-1-3.2-1.9c-0.8-0.7-1-1.2-1.5-2c-0.4-0.8-1.2-2.4-0.6-4.1c0.4-1.1,1.2-1.4,0.7-2.1
		c-0.3-0.5-1.2-0.9-1.9-1.1c-1.3-0.3-1.7,0.2-2.9,0.1c-0.7-0.1-1.7-0.4-3.1-1.6c-1.5-1.4-2.8-2.7-3.6-3.5c-1.6-1.7-2.1-2.2-3.3-3.2
		c-0.8-0.6-0.9-0.6-3.6-2.4c-2.5-1.7-1.6-1.1-4.6-3.2c-2.3-1.6-3-2-2.9-2.3c0.2-0.4,1.9-0.2,3.2,0.3s2.1,1,3.9,2.4
		c3.2,2.3,2.7,1.8,3.9,2.9c2,1.5,3.3,2.6,4.8,4.2c2.1,2.4,2.5,3.8,4.1,4.2c0.5,0.2,1.5,0.3,2.3,0.1c0.3-0.1,0.9-0.2,0.9-0.7
		c0-0.4-0.6-0.7-1.3-1.4c-0.4-0.5-0.7-0.9-0.9-1.1c-0.3-0.3-0.6-0.8-1.2-1.4c-2-2-3.5-2.6-5.6-4.5c-0.5-0.5-1.3-1.2-2.1-2.3
		c-0.7-0.9-1.5-1.9-2.1-2.8c-1.7-2.2-3.5-4.3-5.2-6.2c-1.1-1.1-2.6-2.8-3.7-4.8c-0.8-1.5-1.2-2.9-1.4-3.8c0-0.2-0.1-1.4,0.4-1.4
		c0.6-0.1,1.7,1.1,2.1,1.7c0.6,0.8,1.1,1.4,2,3.3c0.3,0.6,0.7,1.4,1.1,2.4c1.2,1.6,2.5,3.2,3.7,4.8c1,1.4,2.1,2.6,3.1,4
		c0.9,1.4,2.2,3,4.1,4.7c1.1,1.1,2.3,2,3.3,2.9c0.9,0.6,2.2,1.6,3.3,2.9c0.9,1.1,1.5,2,1.9,2.8c0.5,0.4,1.1,0.9,1.5,0.8
		c0.4-0.1-0.2-1.4-0.3-1.6c-0.6-1.3-1.5-2.1-2-2.6c-0.5-0.6-1.2-1.7-2.5-3.7c-0.9-1.5-2.2-3.7-3.3-6.5c-1-2.5-2-5-3-7.5
		c-0.9-1.8-1.2-3.3-1.4-4.4c-0.2-1.3-0.2-2.3-0.1-2.9c0.1-1.4,0.3-2.1,0.7-2.6c0,0,0.4-0.6,1.2-1.1c0.5-0.3,0.8-0.5,1.1-0.4
		c0.9,0.2,1.4,1.3,1.5,1.4c0.3,0.6,0.3,1.1,0.1,2c-0.1,0.6-0.2,1.1-0.4,1.7c-0.3,0.8-0.9,1.3-1,1.5c-1,1.2,0.1,3.1,1.1,5.3
		c1.9,4,0.8,3.1,2.7,7.2c0.9,2,2.1,4.4,3.9,6.9c1.7,2,2.6,3.8,3.1,5c0.3,0.6,1,2.6,2.5,4.6c0.4,0.5,0.8,1.1,1.5,1.6
		c1,0.8,1.6,0.9,2.5,1.5c0.6,0.5,1.3,1.1,1.6,2.3c0,0.4,0.1,1.1,0.8,1.9c0.3,0.4,1.2,1.4,2.4,1.6c0.7,0.1,1.4-0.1,1.7-0.5
		c0.3-0.3,0.3-0.8-0.1-1.2c-0.6-0.8-2-0.8-2.6-1.7c-0.1-0.1-0.3-0.5-0.3-0.8c0.2-0.5,0.9-0.7,1.5-0.6c0.9,0,1.6,0.5,2.1,0.8
		c0.9,0.6,1.1,1.2,1.3,1.6c0.3,0.8,0.3,1.2,0.3,2.6c0,1,0,1.5,0.1,1.9c0.3,1.8,1.5,2.1,2.5,4.4c0.7,1.6,0.6,2.3,1.5,2.7
		c0.8,0.4,1.7,0.3,2.5,0.2c0.3-0.1,1.4-0.5,1.3-1.1c0-0.5-0.6-1-1-1.4c-0.7-0.7-1.1-0.8-1.2-1.1s0.3-0.8,0.9-0.8
		c0.9-0.1,1.9,0.6,2.1,0.9c0.8,0.6,1,1.1,1.1,1.4c0.8,1,0.8,1.6,0.7,1.9c-0.1,0.5-0.5,0.8-1.4,1.5c-0.8,0.6-1,0.6-1.1,0.9
		c-0.1,0.5,0.3,1.2,3.2,2.9c0.9,0.7,2.2,1.7,3.6,2.8c0.9,0.8,2.4,2.1,4,3.8c1.9,2,2.5,2.9,2.8,3.8c0.2,0.5,0.7,1.7,0,1.9
		c-0.5,0.2-1.5-0.5-2.1-1c-0.9-0.7-0.8-1.2-1.3-2.1c-0.3-0.6-0.9-1.4-2.1-2.4c-1.6-1.5-3.1-2.8-4.2-3.8c-4.5-4.1-2.6-2.2-3.4-3
		c-1.7-1.6-2.3-2.3-2.7-2.2c-0.6,0.1-0.5,1.3-0.1,2.3c0.5,1.3,1.4,2.1,2.1,3c1.5,1.7,2.1,2.9,2.9,5.2c0.7,1.7,1.4,3.3,1.7,5.3
		c0.2,1.2,0.2,2.2,1.2,3.2c0.9,0.8,2,1.2,2.8,1.4c1.7,0.5,2.8,1.1,2.9,1.5C1067.2,582.3,1066,582.5,1065.3,582.6z"/>
</g>
<g id="圖層_4">
	<g>
		<text transform="matrix(0.8316 0 0 1 86.1652 773.225)" class="st14 st15">Connect with us</text>
		<g>
			
				<linearGradient id="SVGID_00000131352641073318140130000013951465251235729599_" gradientUnits="userSpaceOnUse" x1="792.5618" y1="1703.3702" x2="90.9214" y2="1703.3702" gradientTransform="matrix(1 0 0 -1 0 2436)">
				<stop  offset="0" style="stop-color:#E0545E"/>
				<stop  offset="0.2181" style="stop-color:#D2467F"/>
				<stop  offset="0.493" style="stop-color:#BA31B1"/>
				<stop  offset="0.7643" style="stop-color:#850ACA"/>
				<stop  offset="1" style="stop-color:#7602CD"/>
			</linearGradient>
			<path style="fill:url(#SVGID_00000131352641073318140130000013951465251235729599_);" d="M129.2,690.7c3.8,0,7.6,0.5,11.3,1.6
				c3.7,1.1,7.7,2.9,12,5.4v14.8c-4.1-2.9-8.1-5-11.6-6.2c-3.6-1.3-7.2-1.9-11-1.9c-4.8,0-9.2,1.2-13.1,3.6s-6.9,5.7-9.1,10.2
				c-2.2,4.3-3.2,9.2-3.2,14.6c0,5.5,1,10.3,3.2,14.7s5.2,7.6,9.1,10s8.3,3.6,13.1,3.6c3.7,0,7.2-0.6,10.7-1.9
				c3.3-1.3,7.6-3.6,12.8-6.9v14.8c-4.4,2.7-8.4,4.8-12.2,5.9c-3.8,1.1-7.9,1.8-12.9,1.8c-7.1,0-13.6-1.7-19.2-5.1
				c-5.6-3.5-10-8.4-13.2-14.8c-3.2-6.5-4.8-13.5-4.8-21.2c0-8.2,1.6-15.5,4.9-22.1c3.3-6.6,7.9-11.6,13.7-15.1
				C115.4,692.5,122,690.7,129.2,690.7z"/>
			
				<linearGradient id="SVGID_00000129184200790761675730000012808478697166804113_" gradientUnits="userSpaceOnUse" x1="792.5618" y1="1689.983" x2="90.9214" y2="1689.983" gradientTransform="matrix(1 0 0 -1 0 2436)">
				<stop  offset="0" style="stop-color:#E0545E"/>
				<stop  offset="0.2181" style="stop-color:#D2467F"/>
				<stop  offset="0.493" style="stop-color:#BA31B1"/>
				<stop  offset="0.7643" style="stop-color:#850ACA"/>
				<stop  offset="1" style="stop-color:#7602CD"/>
			</linearGradient>
			<path style="fill:url(#SVGID_00000129184200790761675730000012808478697166804113_);" d="M186.7,717.7c4.7,0,9,1.2,12.9,3.6
				c3.8,2.4,6.8,5.7,9,9.9c2.1,4.3,3.1,9.1,3.1,14.6c0,5.6-1,10.6-3,14.8c-2.1,4.2-4.9,7.5-9,10s-8.3,3.7-13,3.7
				c-4.7,0-9.1-1.2-13-3.7s-6.8-5.7-8.9-10c-2.1-4.2-3-9.2-3-14.8c0-5.5,1-10.4,3.2-14.6c2.2-4.2,5.1-7.5,9-9.9
				C177.7,718.9,182,717.7,186.7,717.7z M174.4,745.8c0,5.5,1.2,9.8,3.3,13c2.2,3.2,5.2,4.9,8.9,4.9c3.9,0,6.9-1.6,9.2-4.7
				c2.2-3.1,3.3-7.5,3.3-13.4c0-5.5-1.2-9.8-3.3-12.8c-2.3-3-5.3-4.5-9.2-4.5c-3.7,0-6.6,1.6-8.9,4.8
				C175.4,736.2,174.4,740.5,174.4,745.8z"/>
			
				<linearGradient id="SVGID_00000021803280485952739950000017488196896998760081_" gradientUnits="userSpaceOnUse" x1="792.5618" y1="1690.5209" x2="90.9214" y2="1690.5209" gradientTransform="matrix(1 0 0 -1 0 2436)">
				<stop  offset="0" style="stop-color:#E0545E"/>
				<stop  offset="0.2181" style="stop-color:#D2467F"/>
				<stop  offset="0.493" style="stop-color:#BA31B1"/>
				<stop  offset="0.7643" style="stop-color:#850ACA"/>
				<stop  offset="1" style="stop-color:#7602CD"/>
			</linearGradient>
			<path style="fill:url(#SVGID_00000021803280485952739950000017488196896998760081_);" d="M247.4,717.7c4.8,0,8.7,1.9,11.6,5.7
				c2.9,3.8,4.4,8.8,4.4,15.2v34.7h-11.8V740c0-3.6-0.7-6.3-2.1-8.4c-1.4-2-3.3-3.1-5.8-3.1c-1.8,0-3.6,0.6-5.2,1.9
				c-1.6,1.3-3.5,3.5-5.3,6.5v36.2h-12v-54.5h12v7.6c2.2-3.1,4.5-5.4,6.8-6.7C242.3,718.3,244.8,717.7,247.4,717.7z"/>
			
				<linearGradient id="SVGID_00000160168617945786336500000000218758037282787975_" gradientUnits="userSpaceOnUse" x1="792.5618" y1="1690.5209" x2="90.9214" y2="1690.5209" gradientTransform="matrix(1 0 0 -1 0 2436)">
				<stop  offset="0" style="stop-color:#E0545E"/>
				<stop  offset="0.2181" style="stop-color:#D2467F"/>
				<stop  offset="0.493" style="stop-color:#BA31B1"/>
				<stop  offset="0.7643" style="stop-color:#850ACA"/>
				<stop  offset="1" style="stop-color:#7602CD"/>
			</linearGradient>
			<path style="fill:url(#SVGID_00000160168617945786336500000000218758037282787975_);" d="M301.3,717.7c4.8,0,8.7,1.9,11.6,5.7
				c2.9,3.8,4.4,8.8,4.4,15.2v34.7h-11.8V740c0-3.6-0.7-6.3-2.1-8.4c-1.4-2-3.3-3.1-5.8-3.1c-1.8,0-3.6,0.6-5.2,1.9
				c-1.6,1.3-3.5,3.5-5.3,6.5v36.2h-12v-54.5h12v7.6c2.2-3.1,4.5-5.4,6.8-6.7C296,718.3,298.5,717.7,301.3,717.7z"/>
			
				<linearGradient id="SVGID_00000072973502323959144450000014623787210546204585_" gradientUnits="userSpaceOnUse" x1="792.5618" y1="1690.0428" x2="90.9214" y2="1690.0428" gradientTransform="matrix(1 0 0 -1 0 2436)">
				<stop  offset="0" style="stop-color:#E0545E"/>
				<stop  offset="0.2181" style="stop-color:#D2467F"/>
				<stop  offset="0.493" style="stop-color:#BA31B1"/>
				<stop  offset="0.7643" style="stop-color:#850ACA"/>
				<stop  offset="1" style="stop-color:#7602CD"/>
			</linearGradient>
			<path style="fill:url(#SVGID_00000072973502323959144450000014623787210546204585_);" d="M349,717.7c6.7,0,12,2.5,15.9,7.6
				c3.9,5.1,5.9,12.2,5.9,21.3v2.2h-32.1c0.5,4.9,2,8.6,4.5,11.2c2.5,2.6,6,3.9,10.5,3.9c2.9,0,5.6-0.6,8.3-1.8
				c2.6-1.2,5.4-3,8.2-5.4v10.6c-5.3,4.5-11.7,6.8-19.3,6.8c-7.1,0-13-2.6-17.5-7.8c-4.5-5.1-6.8-12.1-6.8-20.7
				c0-8.2,2.1-15.1,6.3-20.3C336.8,720.3,342.3,717.7,349,717.7z M359.4,740.2c-0.3-3.9-1.4-7.1-3-9.3c-1.7-2.3-4-3.3-6.9-3.3
				c-3,0-5.4,1.1-7.2,3.2c-1.8,2.2-3,5.3-3.5,9.4L359.4,740.2L359.4,740.2z"/>
			
				<linearGradient id="SVGID_00000149367715892277192100000017467857487891857557_" gradientUnits="userSpaceOnUse" x1="792.5618" y1="1689.983" x2="90.9214" y2="1689.983" gradientTransform="matrix(1 0 0 -1 0 2436)">
				<stop  offset="0" style="stop-color:#E0545E"/>
				<stop  offset="0.2181" style="stop-color:#D2467F"/>
				<stop  offset="0.493" style="stop-color:#BA31B1"/>
				<stop  offset="0.7643" style="stop-color:#850ACA"/>
				<stop  offset="1" style="stop-color:#7602CD"/>
			</linearGradient>
			<path style="fill:url(#SVGID_00000149367715892277192100000017467857487891857557_);" d="M401.8,717.7c5.3,0,10,1.2,14.3,3.7
				v12.2c-4.3-3-8.3-4.4-12.1-4.4c-4,0-7.4,1.6-10,4.5c-2.6,3.1-3.9,7.2-3.9,12.4c0,5.1,1.3,9.2,3.9,12.3c2.6,3.1,6.1,4.7,10.5,4.7
				c3.2,0,7.4-1.3,12.4-3.8v11.6c-4.7,2.3-9.5,3.5-14.5,3.5c-7.4,0-13.3-2.5-17.9-7.5s-6.9-11.7-6.9-20.1c0-8.7,2.2-15.7,6.7-20.9
				C388.9,720.3,394.6,717.7,401.8,717.7z"/>
			
				<linearGradient id="SVGID_00000073708774215478461580000006359779220611726527_" gradientUnits="userSpaceOnUse" x1="792.5618" y1="1696.7961" x2="90.9214" y2="1696.7961" gradientTransform="matrix(1 0 0 -1 0 2436)">
				<stop  offset="0" style="stop-color:#E0545E"/>
				<stop  offset="0.2181" style="stop-color:#D2467F"/>
				<stop  offset="0.493" style="stop-color:#BA31B1"/>
				<stop  offset="0.7643" style="stop-color:#850ACA"/>
				<stop  offset="1" style="stop-color:#7602CD"/>
			</linearGradient>
			<path style="fill:url(#SVGID_00000073708774215478461580000006359779220611726527_);" d="M438.3,704.2h0.9v14.5h15.5v10.9h-15.5
				v25.1c0,2.5,0.6,4.4,1.8,6c1.3,1.6,2.9,2.3,5.1,2.3c2.8,0,6-1.2,9.7-3.6v11.5c-4.3,2.3-8.4,3.5-12.2,3.5c-5.1,0-9.1-1.7-12-5
				c-2.9-3.3-4.3-7.9-4.3-13.6v-26.1h-7.1v-2.4L438.3,704.2z"/>
			
				<linearGradient id="SVGID_00000093884134188175100950000004426408585882693272_" gradientUnits="userSpaceOnUse" x1="792.5618" y1="1689.5647" x2="90.9214" y2="1689.5647" gradientTransform="matrix(1 0 0 -1 0 2436)">
				<stop  offset="0" style="stop-color:#E0545E"/>
				<stop  offset="0.2181" style="stop-color:#D2467F"/>
				<stop  offset="0.493" style="stop-color:#BA31B1"/>
				<stop  offset="0.7643" style="stop-color:#850ACA"/>
				<stop  offset="1" style="stop-color:#7602CD"/>
			</linearGradient>
			<path style="fill:url(#SVGID_00000093884134188175100950000004426408585882693272_);" d="M496.7,718.8l10.6,31.4l10.7-31.4h7.8
				l10.6,31.4l10.6-31.4h12.4l-20.2,55.5H534l-12.2-33.3l-12.3,33.3h-4.9l-20.4-55.6h12.4V718.8z"/>
			
				<linearGradient id="SVGID_00000050650948831475731210000011898445096451712157_" gradientUnits="userSpaceOnUse" x1="792.5618" y1="1702.5934" x2="90.9214" y2="1702.5934" gradientTransform="matrix(1 0 0 -1 0 2436)">
				<stop  offset="0" style="stop-color:#E0545E"/>
				<stop  offset="0.2181" style="stop-color:#D2467F"/>
				<stop  offset="0.493" style="stop-color:#BA31B1"/>
				<stop  offset="0.7643" style="stop-color:#850ACA"/>
				<stop  offset="1" style="stop-color:#7602CD"/>
			</linearGradient>
			<path style="fill:url(#SVGID_00000050650948831475731210000011898445096451712157_);" d="M571.5,693.5c1.8,0,3.5,0.8,4.7,2.4
				c1.4,1.6,2,3.5,2,5.7c0,2.2-0.7,4.1-2,5.7c-1.3,1.7-2.9,2.5-4.8,2.5c-1.8,0-3.3-0.8-4.7-2.5c-1.4-1.7-2.1-3.6-2.1-5.7
				c0-2.3,0.7-4.2,2.1-5.7S569.8,693.5,571.5,693.5z M577.5,718.8v54.5h-11.8v-54.5H577.5z"/>
			
				<linearGradient id="SVGID_00000116196158943962114910000010167734178622235520_" gradientUnits="userSpaceOnUse" x1="792.5618" y1="1696.7961" x2="90.9214" y2="1696.7961" gradientTransform="matrix(1 0 0 -1 0 2436)">
				<stop  offset="0" style="stop-color:#E0545E"/>
				<stop  offset="0.2181" style="stop-color:#D2467F"/>
				<stop  offset="0.493" style="stop-color:#BA31B1"/>
				<stop  offset="0.7643" style="stop-color:#850ACA"/>
				<stop  offset="1" style="stop-color:#7602CD"/>
			</linearGradient>
			<path style="fill:url(#SVGID_00000116196158943962114910000010167734178622235520_);" d="M602.3,704.2h0.9v14.5h15.5v10.9h-15.5
				v25.1c0,2.5,0.6,4.4,1.8,6c1.3,1.6,2.9,2.3,5.1,2.3c2.8,0,6-1.2,9.7-3.6v11.5c-4.3,2.3-8.4,3.5-12.2,3.5c-5.1,0-9.1-1.7-12-5
				c-2.9-3.3-4.3-7.9-4.3-13.6v-26.1h-7.1v-2.4L602.3,704.2z"/>
			
				<linearGradient id="SVGID_00000174582800556400046620000005767360857854070932_" gradientUnits="userSpaceOnUse" x1="792.5618" y1="1703.5496" x2="90.9214" y2="1703.5496" gradientTransform="matrix(1 0 0 -1 0 2436)">
				<stop  offset="0" style="stop-color:#E0545E"/>
				<stop  offset="0.2181" style="stop-color:#D2467F"/>
				<stop  offset="0.493" style="stop-color:#BA31B1"/>
				<stop  offset="0.7643" style="stop-color:#850ACA"/>
				<stop  offset="1" style="stop-color:#7602CD"/>
			</linearGradient>
			<path style="fill:url(#SVGID_00000174582800556400046620000005767360857854070932_);" d="M638.5,691.6v34.7h0.3
				c3.8-5.7,8.5-8.7,13.9-8.7c4.8,0,8.7,1.9,11.6,5.7c3,3.8,4.4,8.8,4.4,14.9v34.9h-11.8V741c0-3.7-0.7-6.6-2.2-8.7
				c-1.5-2.2-3.5-3.2-5.9-3.2c-1.8,0-3.6,0.6-5.2,1.9c-1.6,1.2-3.3,3.3-5.2,6.2v36.1h-11.8v-81.5h11.8V691.6z"/>
			
				<linearGradient id="SVGID_00000114066723527785127520000017513818271572295855_" gradientUnits="userSpaceOnUse" x1="792.5618" y1="1689.4453" x2="90.9214" y2="1689.4453" gradientTransform="matrix(1 0 0 -1 0 2436)">
				<stop  offset="0" style="stop-color:#E0545E"/>
				<stop  offset="0.2181" style="stop-color:#D2467F"/>
				<stop  offset="0.493" style="stop-color:#BA31B1"/>
				<stop  offset="0.7643" style="stop-color:#850ACA"/>
				<stop  offset="1" style="stop-color:#7602CD"/>
			</linearGradient>
			<path style="fill:url(#SVGID_00000114066723527785127520000017513818271572295855_);" d="M719.4,718.8v33.7
				c0,3.6,0.7,6.2,2.2,8.1c1.5,1.8,3.5,2.7,5.9,2.7c2,0,3.9-0.7,5.8-2.3c1.8-1.4,3.3-3.6,4.5-6.2v-36.1h12v54.5h-12v-7.4
				c-4.3,5.6-9,8.5-14,8.5c-4.8,0-8.7-1.9-11.7-5.7c-3-3.8-4.5-8.8-4.5-14.9v-34.9H719.4z"/>
			
				<linearGradient id="SVGID_00000097499677776739422430000016695191382036193983_" gradientUnits="userSpaceOnUse" x1="792.5618" y1="1689.8635" x2="90.9214" y2="1689.8635" gradientTransform="matrix(1 0 0 -1 0 2436)">
				<stop  offset="0" style="stop-color:#E0545E"/>
				<stop  offset="0.2181" style="stop-color:#D2467F"/>
				<stop  offset="0.493" style="stop-color:#BA31B1"/>
				<stop  offset="0.7643" style="stop-color:#850ACA"/>
				<stop  offset="1" style="stop-color:#7602CD"/>
			</linearGradient>
			<path style="fill:url(#SVGID_00000097499677776739422430000016695191382036193983_);" d="M776.3,717.7c2.5,0,4.8,0.4,7,1.1
				c2.2,0.7,4.5,1.8,7,3.2v11.5c-2.3-1.8-4.7-3.1-7.2-4.2c-2.6-1.1-4.9-1.6-6.9-1.6c-1.7,0-3.1,0.4-4,1.2c-0.9,0.8-1.5,1.9-1.5,3.3
				c0,0.8,0.5,1.7,1.3,2.5c0.8,0.8,3,2.3,6.7,4.5c5.2,3.1,8.9,6.1,10.9,8.7c2.1,2.6,3.1,5.9,3.1,9.6c0,5.3-1.5,9.4-4.6,12.4
				c-3,3-7.1,4.5-12.3,4.5c-3.2,0-6.2-0.5-9.1-1.3c-2.9-0.8-5.2-1.9-7-3.1v-12c5.9,3.9,10.7,5.9,14.7,5.9c2.1,0,3.7-0.5,4.9-1.3
				s1.8-2,1.8-3.5c0-0.8-0.2-1.7-0.7-2.4c-0.5-0.7-1.2-1.4-2.1-2.2c-0.9-0.7-3.7-2.5-8.5-5.3c-3.7-2.2-6.3-4.4-8.1-6.8
				c-1.7-2.5-2.6-5.4-2.6-8.7c0-4.8,1.6-8.7,4.7-11.6C767.1,719.1,771.3,717.7,776.3,717.7z"/>
		</g>
	</g>
</g>
</svg>
