<?xml version="1.0" encoding="utf-8"?>
<!-- Generator: Adobe Illustrator 26.2.1, SVG Export Plug-In . SVG Version: 6.00 Build 0)  -->
<svg version="1.1" xmlns="http://www.w3.org/2000/svg" xmlns:xlink="http://www.w3.org/1999/xlink" x="0px" y="0px"
	 viewBox="0 0 215.2 315.8" style="enable-background:new 0 0 215.2 315.8;" xml:space="preserve">
<style type="text/css">
	.st0{display:none;}
	.st1{display:inline;}
	.st2{fill:#FFFFFF;stroke:#FFFFFF;stroke-width:0.9787;}
	.st3{display:inline;fill:#16181E;stroke:#FFFFFF;stroke-width:0.9787;}
	.st4{fill:#FFFFFF;stroke:#FFFFFF;stroke-width:0.25;}
</style>
<g id="圖層_1" class="st0">
	<g id="Page-1" class="st1">
		<g id="site-logo-white4">
			<path id="Combined-Shape" class="st2" d="M-264.8,452.1v1c-3.1,4.2-3.6,8.4-3.6,12c0.1,1-0.3,1.5-1.1,1.5c-0.9,0-1.3-0.5-1.3-1.5
				c0-3.2,1.1-6.3,4-10.2v-0.4h-5.3c-0.5,0-0.9,0.3-1.1,0.7h-0.6l0.3-3.1H-264.8z M-306.9,452.1v13.4l1.7,0.2v0.8h-5.9v-0.8l1.7-0.2
				v-11h-1.7v-1c1.1-0.1,2.3-0.5,2.8-1.4H-306.9z M-296.3,451.9c2.8,0,4.5,1.5,4.5,3.2c0.1,1.5-1,2.6-2.5,3.1l0.1,0.3
				c1.6,0.9,3.1,2.1,3.1,4c0,2.2-1.9,4-4.9,4c-3.1,0-5.1-1.6-5.1-3.4c0-1.6,1.2-2.8,2.9-3.3l-0.1-0.5c-1.3-0.8-2.5-2-2.5-3.6
				C-300.8,453.6-299.1,451.9-296.3,451.9z M-281.6,451.8c2.2,0,3.8,1.1,3.8,2.5c-0.1,1-0.6,1.4-1.2,1.4c-0.5,0-1-0.5-1.1-1.1
				c0-0.5,0.2-0.9,0.3-1.5c-0.3-0.2-0.6-0.2-1.1-0.2c-2.4,0-3.3,2.7-3.3,7.1h0.2c0.4-1.6,1.6-2.4,2.9-2.4c2.4,0,3.8,1.8,3.8,4
				c0,2.8-2,4.9-4.9,4.9c-3.6,0-5-3.4-5-6C-287.2,455.1-284.7,451.8-281.6,451.8z M-297.2,459.9c-1.2,0.6-1.7,1.8-1.7,3
				c0,1.6,0.8,2.7,2.9,2.7c1.7,0,2.3-1.1,2.3-2.5c0-1.5-1.5-2.4-2.8-2.9C-296.7,460.1-297,460-297.2,459.9z M-282.1,459
				c-0.9,0-1.8,0.7-2.2,2c0.1,2,0.4,4.5,2.4,4.5c1.4,0,1.8-1.4,1.8-3.4C-280.1,460.2-280.7,459-282.1,459z M-296.2,452.8
				c-1.4,0-1.9,1-1.9,2.3c0,1.4,1.3,2.3,2.4,2.7c0.2,0.1,0.4,0.2,0.6,0.3c0.8-0.6,1.2-1.7,1.2-2.8
				C-293.9,453.9-294.5,452.8-296.2,452.8z M-139.6,403l0.1,1.8l-4.4,0.5v27.2c0,9.3-6.7,13.8-16.3,13.8c-7.8,0-15.3-4.4-15.3-13.2
				v-27.8l-4.5-0.5l0.1-1.8l7,0.2l7.5-0.2v1.8l-4.3,0.5v27.6c0,6.8,4.4,10,11.4,10s11.5-3.3,11.5-10.6v-27l-4.4-0.5V403l6,0.2
				L-139.6,403z M69.8,402.4c4.5,0,8,2.2,9.3,3.7l1-3.2h2.1v11.4h-2.3c-0.9-6.6-5.1-9.7-9.9-9.7c-5.4,0-7.9,2.9-7.9,7.3
				c0,4.5,5.4,6.3,10.6,9.1c7.5,3.9,11.2,7.7,11.2,12.8c0,7.9-6.1,12.3-13,12.3c-4.8,0-8.2-1.9-10.4-4.1l-1,3.5h-1.8v-12l2.4-0.1
				c1,7,3.9,10.4,10.7,10.4c5,0,8.2-3.1,8.2-7.8c0-5.2-5.7-7.5-9.9-9.7c-8.9-4.2-11.5-8.3-11.5-13.1C57.6,406.5,64,402.4,69.8,402.4
				z M31.1,403.1c10.5,0,16.1,4.4,16.1,10.4s-4.4,8.6-10.4,9.8l0.2,1c6.7,0.2,9.7,4.2,9.7,9.1v2.8c0,5.2,1.1,7.2,2.9,7.2
				c1,0,1.7-0.7,2.3-2.1l1.1,0.8c-1.3,2.4-3,3.9-6,3.9c-4.1,0-6-3.8-6-9.7v-2.9c0-3.6-2-8.1-6.4-8.1h-9.1v18.1l4.4,0.7v1.6l-7.1-0.1
				l-7.5,0.1v-1.6l4.5-0.7v-38.1l-4.5-0.5l0.1-1.7H31.1z M-264,367.3h-4v-1.2h-3.8v1.2h-4v-1.2h-3.8v1.2h-3.9v-1.2h-3.9v1.2h-3.9
				v-1.2h-4v1.2h-3.9v-1.2h-3.9v1.2h-3.9v-1.2h-3.9v1.2h-3.9v-1.2h-3.9v1.2h-3.7v1.2h-0.2v-2.4h0.1l-2.8-5.2h2.9v-9.1l0.1-0.1
				c0.4-0.5,0.6-0.5,0.9-0.8c0.2-0.2-0.8-0.4-0.4-1.1c0.5-1-0.5-1.4-0.5-1.8c0-0.6,0.6-0.6,1-1.2c0.2-0.4-0.5-1.5,0.3-1.6l0,0l0.1,0
				c0.5,0.3,0,1.3,0.2,1.6c0.4,0.6,1,0.6,1,1.2c0,0.4-1,0.9-0.5,1.8c0.3,0.6-0.6,0.9-0.4,1.1c0.3,0.3,0.5,0.2,1,0.9l0,0h8.6v-8.4
				l1.9,0V342l1.1-28.8l0.6-1.3l9.9-3.3l14.5-0.4c0,0.1,11.1,2.6,11.1,2.6c0,0.1,3.1,2.8,3.1,2.8l0,0l0.6,1.1l0.9,28.7l2,0v8.4h6.3
				c0.5-0.6,0.7-0.6,1-0.9c0.2-0.2-0.8-0.4-0.4-1.1c0.5-1-0.5-1.4-0.5-1.8c0-0.6,0.6-0.6,1-1.2c0.2-0.4-0.5-1.5,0.3-1.6l0,0l0.1,0
				c0.5,0.3,0,1.3,0.2,1.6c0.4,0.6,1,0.6,1,1.2c0,0.4-1,0.9-0.5,1.8c0.3,0.6-0.6,0.9-0.4,1.1c0.3,0.3,0.5,0.2,1,0.9l0,0v9.1h2.9
				l-2.9,5.3l0,0.3l0,0.8h0l-0.1,46.4h4.9l-2.9,5.3v9.7h16.8c0.5-0.7,0.7-0.7,1-1c0.2-0.2-0.7-0.4-0.4-1.1c0.5-1-0.5-1.4-0.5-1.8
				c0-0.6,0.6-0.6,1-1.2c0.2-0.3-0.5-1.5,0.3-1.6l0,0l0.1,0c0.5,0.3,0,1.3,0.2,1.6c0.4,0.6,1,0.6,1,1.2c0,0.4-1,0.9-0.5,1.8
				c0.3,0.6-0.6,0.9-0.4,1.1c0.3,0.4,0.5,0.3,1,1l0,0v0.1h3.1l-2.9,5.3v11.7h-109.1v-11.7l-2.9-5.3h2.9c0.5-0.7,0.7-0.7,1-1
				c0.2-0.2-0.7-0.4-0.4-1.1c0.5-1-0.5-1.4-0.5-1.8c0-0.6,0.6-0.6,1-1.2c0.2-0.4-0.5-1.5,0.3-1.6l0,0l0.1,0c0.5,0.3,0,1.3,0.2,1.6
				c0.4,0.6,1,0.6,1,1.2c0,0.4-1,0.9-0.5,1.8c0.3,0.6-0.6,0.9-0.4,1.1c0.3,0.3,0.5,0.2,1,0.9l0,0h16.5V419l-3-5.3h4.9v-45.2h66.1
				v-1.2h-3.8v-1.2h-3.9V367.3z M186.6,402.9v1.7l-3.8,0.8L170.3,428v15.4l4.4,0.8v1.6l-7.2-0.1l-7.3,0.1v-1.6l4.4-0.7V428
				L152,405.4l-3.8-0.9v-1.6l6.9,0.1l7.3-0.1v1.6l-3.8,0.7v0.6l10.2,19.2l10-18.9v-0.8l-4.1-0.7v-1.7l6.9,0.1L186.6,402.9z
				 M106.2,403.1v1.7l-4.3,0.5v38l4.2,0.8v1.6l-7-0.1l-7.5,0.1v-1.6l4.5-0.7v-38.1l-4.5-0.5l0.1-1.7l7.4,0.2L106.2,403.1z
				 M-72,403.1v1.7l-4.3,0.5v38l4.2,0.8v1.6l-7-0.1l-7.5,0.1v-1.6l4.5-0.7v-38.1l-4.5-0.5l0.1-1.7l7.4,0.2L-72,403.1z M-92.3,403
				v1.6l-4.4,0.7c0,0-0.5,6.7-0.5,14.6l0,25.7h-3.9l-25.8-33.3v15c0,10.3,0.5,16,0.5,16l4.6,0.8v1.6l-6.2-0.1l-6.9,0.1v-1.6l4.6-0.7
				c0,0,0.4-5.3,0.4-16.2v-18.8c0-2.9-2-3.3-4.1-3.6l-0.3-0.1c-0.2,0-0.3-0.1-0.5-0.1l0.1-1.7l8.6,0.2l26.1,34.2v-17.3
				c0-8-0.4-14.7-0.4-14.7l-5.2-0.8V403l6.7,0.1L-92.3,403z M5.8,403L6,414.2H3.7l-0.4-1.4c-1-3.8-3.5-7.3-9.2-7.3h-9.4V423h2.7
				c4.3,0.1,7.5-1.1,7.5-4.5v-1.2h1.9v13.8h-1.9v-1.2c0-3.4-3.1-4.6-7.4-4.6h-2.7v17.9h11.3c5.4,0,9-3.2,10.1-7.1l0.4-1.5l2.3,0.1
				l-1.2,10.9h-25.6l-7.5,0.1v-1.6l4.5-0.7v-38.1l-4.5-0.5l0.1-1.7H5.8V403z M145.4,403l0.7,11.1h-2.4l-0.6-1.8
				c-1.3-3.9-3.2-6.9-8.3-6.8h-3.7v37.9l4.5,0.5l-0.1,1.7l-7.1-0.2l-7.3,0.2v-1.7l4.2-0.5v-37.9h-4.1c-5-0.1-7,2.9-8.3,6.8l-0.6,1.8
				H110l0.7-11.1H145.4z M-28.2,402.9v1.6l-4,0.8l-14.5,40.2h-3.1l-14.6-40.2l-4.1-0.8v-1.6l7.2,0.1l7.1-0.1v1.6l-4.4,0.7l11.7,32.8
				l11.3-32.8l-4.4-0.7v-1.6l6.4,0.1L-28.2,402.9z M-238.4,432.5h-102l1.1,1.2h99.8L-238.4,432.5z M30.7,405.4h-5.2v17.5h3.9
				c9.2,0.2,11.8-5,11.8-9.3C41.2,409.7,38.8,405.4,30.7,405.4z M-257.2,417.8h-64.5l0.7,1.2h63.1L-257.2,417.8z M-288.9,377.8
				c-7.2,0-13,5.5-13,12.4s5.8,12.5,13,12.4c7.2,0,13-5.5,13-12.4C-275.9,383.4-281.7,377.8-288.9,377.8z M-289.3,382l0.2,7.4
				l9.2,4.9l-10.8-4.1L-289.3,382z M-84.8,319.3c17,0,27.7,13.5,27.7,31.2c0,17.7-10.8,31.1-27.7,31.1c-17,0-27.8-13.4-27.8-31.1
				C-112.6,332.8-101.8,319.3-84.8,319.3z M102.5,320.1c14.3,0,22,6.2,22,14.9c0,8.5-6,12.3-14.2,13.9l0.3,1.4
				c9.1,0.3,13.3,6,13.3,13v4c0,7.5,1.6,10.3,3.9,10.3c1.4,0,2.3-1,3.1-3l1.6,1.1c-1.8,3.4-4.1,5.5-8.2,5.5c-5.5,0-8.2-5.4-8.2-13.9
				v-4.2c0-5.2-2.7-11.6-8.8-11.6H92.6v25.8l6.2,1.4v2.3l-9.7-0.2L78.9,381v-2.3l6.1-0.9v-54.4l-6.2-0.8l0.1-2.5H102.5z
				 M158.8,320.2c19.4,0,30.6,13.8,30.6,29.6c0,20.3-13.3,31.1-30.6,31.1h-12.2l-10.1,0.2v-2.3l6-0.9v-54.4l-6.2-0.8l0.2-2.5H158.8z
				 M49.8,320.1L70,377.6l5.5,1.1v2.3l-9.8-0.2l-9.9,0.2v-2.3l6.1-0.9l-5.1-15H34.7c-3.1,9.1-4.8,15-4.8,15l6.4,0.9v2.3l-8.9-0.2
				l-7.9,0.2v-2.3l5.1-0.8c0,0,3.7-8.8,7.2-19.1l13.4-38.7H49.8z M-118.9,319v2.5l-5.9,0.8v55.2l6,1.1v2.3l-9.8-0.2l-10.3,0.2v-2.3
				l6.1-1v-25.4h-33.1v25.3l6,1.2v2.3l-9.8-0.2l-10.4,0.2v-2.3l6.2-1v-55.4l-6.3-0.8l0.1-2.5l10.2,0.2l9.9-0.2v2.5l-6,0.8v26h33.1
				v-26l-6.1-0.8l0.1-2.5l10.1,0.2L-118.9,319z M-56.4,320.1l9.9,0.2l10.8-0.1v2.8l-6.5,0.9l-0.1,0.8l11.3,42.9l15.5-47.4h4.9
				l16.5,47.7l9.8-43.3v-0.7L8,322.8v-2.5l9.5,0.2l8.5-0.2v2.6l-5.6,1.2L6.2,380.9H2.7l-17.4-50.1l-16.9,50.1h-3.7v-0.1L-50.9,324
				l-5.6-1.4L-56.4,320.1z M-84.8,323.1c-13.6,0-18.4,11.9-18.4,27.4s4.8,27.4,18.4,27.4s18.4-11.8,18.4-27.4
				C-66.4,335-71.2,323.1-84.8,323.1z M157.3,323.7l-6.9,0.1v53.6h7.7c18.1,0.3,22.6-15.1,22.6-27.4
				C180.7,338.2,174.6,323.6,157.3,323.7z M-316.9,353.5h-1.1v7.1h1.1V353.5z M-313.4,353.5h-1.1v7.1h1.1V353.5z M-309.9,353.5h-1.1
				v7.1h1.1V353.5z M-306.4,353.5h-1.1v7.1h1.1V353.5z M-302.9,353.5h-1.1v7.1h1.1V353.5z M-299.4,353.5h-1.1v7.1h1.1V353.5z
				 M-295.9,353.5h-1.1v7.1h1.1V353.5z M-292.4,353.5h-1.1v7.1h1.1V353.5z M-285.4,353.5h-1.1v7.1h1.1V353.5z M-281.9,353.5h-1.1
				v7.1h1.1V353.5z M-278.4,353.5h-1.1v7.1h1.1V353.5z M-274.9,353.5h-1.1v7.1h1.1V353.5z M-271.4,353.5h-1.1v7.1h1.1V353.5z
				 M-267.9,353.5h-1.1v7.1h1.1V353.5z M-260.9,353.5h-1.1v7.1h1.1V353.5z M-264.4,353.5h-1.1v7.1h1.1V353.5z M45.8,330.4l-9.6,28.3
				h19.2L45.8,330.4z M102.4,323.6l-9.6,0v24.9h7.5c12.6,0.3,16.1-7.1,16.1-13.3C116.4,329.7,113.1,323.6,102.4,323.6z
				 M-266.2,344.8h-44.4l0.5,0.8h43.5L-266.2,344.8z M-299.1,317.5c0-4.9-6.1-4.1-6.5,2.2l0,0L-306,341l6.8-1.9h0.1V317.5z
				 M-270.8,320.6c0-4.9-5.4-8.9-5.8-2.9l0,0l0.1,21l6.2,1.4L-270.8,320.6z M-284.3,316.7c0-4.9-7.1-5.7-7.6,0.5l0,0l-0.5,21.2h8.1
				V316.7z M-282.6,301.2l11.1,2.5l3.2,1.8l0,0v0.1l4.8,4.5l-4.7,4.5v-1.3l-3.4-3.1c-0.2,0-11.3-2.6-11.3-2.6
				c-0.1,0-14.7,0.4-14.7,0.4c0,0-0.1,0-0.2,0.1l-0.4,0.1c-2.1,0.7-9.9,3.4-10,3.3l0,0v1.7l-4.3-4.1l4.8-3.2l0,0l10.4-4.3
				L-282.6,301.2z M-307.5,305.2c0.8-19.4,35.2-20.3,39-0.4l0,0l-2.9-1.6l-11.2-2.6l-14.7,0.4L-307.5,305.2z M-287.8,241.9l0.6,27
				l0.2,0c2.4,0.5,4.6,2.4,5,5.9l0,0l1.4,0.7l-1.4,1.4l0.2,13l-3.7-1h-5.1l-3.7,0.8v-0.6l0.4-12.1l-1.5-1.2l1.6-0.7
				c0-3.7,2.4-5.8,5-6.1l0,0h-0.1L-287.8,241.9z M-291.4,280.6c0-1.5-1.8-1.2-1.9,0.6l0,0l-0.1,6.2l2-0.6V280.6z M-283,281.5
				c0-1.5-1.6-2.6-1.7-0.9l0,0v6.1l1.8,0.5L-283,281.5z M-287.1,280.3c0-1.5-2.1-1.7-2.2,0.1l0,0l-0.1,6.2h2.3V280.3z"/>
		</g>
	</g>
</g>
<g id="圖層_3" class="st0">
	<rect x="-17.4" y="-1.8" class="st3" width="243.1" height="325.7"/>
</g>
<g id="圖層_1_拷貝" class="st0">
	<g id="Page-1_00000106834940998884077880000011734081919109534900_" class="st1">
		<g id="site-logo-white4_00000158010868931259760660000016505171507552900771_">
			<polygon class="st2" points="85.7,273.8 85.7,273.9 87.7,273.9 97,248.9 106.7,273.9 108.6,273.9 116.4,245.5 119.5,244.9 
				119.5,243.6 114.8,243.7 109.6,243.6 109.6,244.9 113.8,245.4 113.8,245.8 108.4,267.4 99.3,243.6 96.6,243.6 88,267.2 
				81.8,245.8 81.8,245.4 85.4,245 85.4,243.6 79.5,243.6 74,243.5 73.9,244.8 77,245.5 			"/>
			<path class="st2" d="M58.3,274.2c9.3,0,15.3-6.7,15.3-15.5c0-8.8-5.9-15.6-15.3-15.6S43,249.9,43,258.7
				C43,267.5,48.9,274.2,58.3,274.2z M58.3,245c7.5,0,10.2,5.9,10.2,13.7c0,7.8-2.7,13.7-10.2,13.7c-7.5,0-10.2-5.9-10.2-13.7
				C48.1,251,50.8,245,58.3,245z"/>
			<path class="st2" d="M169.3,265v2.1c0,4.2,1.5,6.9,4.5,6.9c2.3,0,3.5-1,4.5-2.7l-0.9-0.5c-0.4,1-0.9,1.5-1.7,1.5
				c-1.3,0-2.2-1.4-2.2-5.1v-2c0-3.5-2.3-6.3-7.3-6.5l-0.2-0.7c4.5-0.8,7.8-2.7,7.8-6.9c0-4.3-4.3-7.4-12.2-7.4h-13l-0.1,1.2
				l3.4,0.4v27.2l-3.4,0.4v1.1l5.6-0.1l5.4,0.1v-1.1l-3.4-0.7v-12.9h8.1C167.8,259.2,169.3,262.4,169.3,265z M160.6,257.7h-4.1
				v-12.4l5.3,0c6,0,7.7,3,7.7,5.8C169.5,254.2,167.5,257.9,160.6,257.7z"/>
			<polygon class="st2" points="155.8,285 155.8,285.8 158.3,286.1 158.3,305.1 155.8,305.4 155.8,306.2 159.9,306.2 163.8,306.2 
				163.8,305.4 161.5,305 161.5,286.1 163.8,285.8 163.8,285 159.9,285.1 			"/>
			<path class="st2" d="M136,273.9l5.5-0.1l5.4,0.1v-1.1l-3-0.5l-11.2-28.7h-2.5l-7.4,19.3c-1.9,5.1-4,9.5-4,9.5l-2.8,0.4v1.1
				l4.4-0.1l4.9,0.1v-1.1l-3.5-0.4c0,0,0.9-2.9,2.7-7.5h12.2l2.8,7.5l-3.4,0.4V273.9z M125.2,262.8l5.3-14.1l5.3,14.1H125.2z"/>
			<path class="st2" d="M145.3,293.9c-2.9-1.4-5.9-2.3-5.9-4.5c0-2.2,1.4-3.6,4.4-3.6c2.7,0,5,1.5,5.5,4.8h1.3v-5.7h-1.2l-0.6,1.6
				c-0.7-0.7-2.7-1.8-5.1-1.8c-3.2,0-6.7,2-6.7,5.4c0,2.4,1.4,4.4,6.4,6.5c2.3,1.1,5.5,2.2,5.5,4.8c0,2.3-1.8,3.9-4.5,3.9
				c-3.8,0-5.4-1.7-5.9-5.2l-1.3,0v6h1l0.6-1.7c1.2,1.1,3.1,2,5.7,2c3.8,0,7.2-2.2,7.2-6.1C151.5,297.8,149.5,295.9,145.3,293.9z"/>
			<path class="st2" d="M166.3,284.9l-0.4,5.5h1.3l0.3-0.9c0.7-1.9,1.8-3.4,4.6-3.4h2.3v18.9l-2.3,0.2v0.8l4-0.1l3.9,0.1l0.1-0.8
				l-2.5-0.2v-18.9h2c2.8,0,3.9,1.4,4.6,3.4l0.3,0.9h1.3l-0.4-5.5H166.3z"/>
			<polygon class="st2" points="201.7,284.9 201.7,285.7 203.9,286.1 203.9,286.5 198.4,295.9 192.8,286.3 192.8,286 194.9,285.7 
				194.9,284.9 190.8,284.9 187,284.9 187,285.7 189.1,286.1 196.1,297.4 196.1,305.1 193.7,305.5 193.7,306.3 197.7,306.2 
				201.7,306.3 201.7,305.5 199.2,305.1 199.2,297.4 206.1,286.1 208.2,285.7 208.2,284.9 205.5,284.9 			"/>
			<path class="st2" d="M209.8,258.4c0-7.9-6.2-14.8-16.9-14.8h-12.3l-0.1,1.2l3.4,0.4v27.2l-3.3,0.4v1.1l5.6-0.1h6.7
				C202.4,273.9,209.8,268.5,209.8,258.4z M188.2,272.1v-26.8l3.8-0.1c9.6,0,12.9,7.2,12.9,13.1c0,6.1-2.5,13.8-12.5,13.7H188.2z"/>
			<polygon class="st2" points="28.4,272.7 28.4,273.9 34.1,273.8 39.5,273.9 39.5,272.7 36.2,272.2 36.2,244.6 39.5,244.2 
				39.5,243 34,243.1 28.4,243 28.4,244.2 31.7,244.6 31.7,257.6 13.5,257.6 13.5,244.6 16.8,244.2 16.8,243 11.3,243.1 5.7,243 
				5.6,244.2 9.1,244.6 9.1,272.3 5.7,272.8 5.7,273.9 11.4,273.8 16.8,273.9 16.8,272.8 13.5,272.2 13.5,259.5 31.8,259.5 
				31.8,272.2 			"/>
			<path class="st2" d="M24.9,285l-3.3-0.1v0.9l2.4,0.2v13.5c0,3.6-2.5,5.3-6.4,5.3s-6.3-1.6-6.3-5v-13.8l2.4-0.2v-0.9L9.6,285
				l-3.9-0.1l-0.1,0.9l2.5,0.2V300c0,4.4,4.1,6.6,8.5,6.6c5.3,0,9-2.2,9-6.9v-13.6l2.4-0.2l-0.1-0.9L24.9,285z"/>
			<path class="st2" d="M46.8,284.9v0.8l2.9,0.4c0,0,0.2,3.3,0.2,7.3v8.6L35.4,285l-4.8-0.1l-0.1,0.8c0.1,0,0.2,0,0.3,0l0.2,0
				c1.2,0.2,2.3,0.3,2.3,1.8v9.4c0,5.4-0.2,8.1-0.2,8.1l-2.5,0.3v0.8l3.8,0l3.4,0v-0.8l-2.5-0.4c0,0-0.3-2.8-0.3-8v-7.5l14.3,16.6
				h2.2l0-12.8c0-4,0.3-7.3,0.3-7.3l2.4-0.3v-0.8l-3.7,0L46.8,284.9z"/>
			<path class="st2" d="M132.6,305.1c-1,0-1.6-1-1.6-3.6v-1.4c0-2.4-1.7-4.4-5.4-4.5l-0.1-0.5c3.3-0.6,5.7-1.9,5.7-4.9
				c0-3-3.1-5.2-8.9-5.2h-8.7l-0.1,0.8l2.5,0.2v19l-2.5,0.3v0.8l4.1,0l3.9,0v-0.8l-2.4-0.3v-9h5c2.4,0,3.5,2.2,3.5,4v1.4
				c0,2.9,1,4.8,3.3,4.8c1.7,0,2.6-0.7,3.3-1.9l-0.6-0.4C133.5,304.7,133.1,305.1,132.6,305.1z M121.4,294.9h-2.2v-8.7h2.9
				c4.5,0,5.8,2.1,5.8,4.1C127.9,292.4,126.5,295,121.4,294.9z"/>
			<path class="st2" d="M108.6,301.5c-0.6,1.9-2.6,3.5-5.6,3.5h-6.2v-8.9h1.5c2.4,0,4.1,0.6,4.1,2.3v0.6h1v-6.9h-1v0.6
				c0,1.7-1.8,2.3-4.1,2.2h-1.5v-8.7h5.2c3.1,0,4.5,1.7,5.1,3.6l0.2,0.7h1.3l-0.1-5.6v0H91.2l-0.1,0.8l2.5,0.2v19l-2.5,0.3v0.8
				l4.1,0h14.1l0.7-5.4l-1.3,0L108.6,301.5z"/>
			<polygon class="st2" points="57.4,285 57.3,285.8 59.8,286.1 59.8,305.1 57.3,305.4 57.3,306.2 61.5,306.2 65.3,306.2 
				65.3,305.4 63,305 63,286.1 65.4,285.8 65.4,285 61.5,285.1 			"/>
			<polygon class="st2" points="83.1,284.9 83.1,285.7 85.5,286 79.3,302.4 72.8,286 75.2,285.7 75.2,284.9 71.3,284.9 67.3,284.9 
				67.3,285.7 69.6,286.1 77.6,306.1 79.4,306.1 87.4,286.1 89.6,285.7 89.6,284.9 86.6,284.9 			"/>
		</g>
	</g>
</g>
<g id="圖層_1_拷貝_2" class="st0">
	<g id="Page-1_00000110450679132716297070000004708504052699654568_" class="st1">
		<g id="site-logo-white4_00000139978522180423017980000003890978135479850672_">
			<path class="st4" d="M120.6,221.7h0.1c0,0,0.6-0.5,1.1-1h5.5v0.9c-3.1,3.9-4.2,7-4.2,10.2c0,1,0.4,1.5,1.3,1.5
				c0.8,0,1.2-0.5,1.1-1.5c0-3.6,3.8-12,3.8-12v-1.1h-8.4L120.6,221.7z"/>
			<polygon class="st4" points="104.8,156.1 104.6,148.7 103.2,156.9 114,161 			"/>
			<path class="st4" d="M75.3,132.7h4v1h4v-1h4v1h3v-1h4v1h4v-1h4v1h4v-1h4v1h4v-1h4v1h4v-1h4v1h4v-1h4v1h3l0,1h0v-1h0l0-0.5l0-0.3
				l2.9-5.2h-2.9v-9c-0.5-0.7-0.7-0.6-1-0.9c-0.2-0.2,0.7-0.5,0.4-1.1c-0.5-0.9,0.5-1.4,0.5-1.8c0-0.6-0.6-0.6-1-1.2
				c-0.2-0.3,0.3-1.3-0.2-1.5l-0.1,0c-0.8,0.1-0.1,1.2-0.3,1.6c-0.4,0.6-1,0.6-1,1.2c0,0.4,1,0.8,0.5,1.8c-0.4,0.7,0.6,0.9,0.4,1.1
				c-0.3,0.3-0.5,0.3-1,0.9h-6.2v-8l-2,0L125.4,82l-0.6-1.1c0,0-3.1-2.7-3.1-2.8c0,0-11.2-2.5-11.2-2.6L96,75.9l-9.9,3.3l-0.6,1.3
				l-1.1,28.8v1.4l-2,0v8H74c-0.5-0.7-0.7-0.6-1-0.9c-0.2-0.2,0.7-0.5,0.4-1c-0.5-0.9,0.5-1.3,0.5-1.7c0-0.6-0.6-0.6-1-1.1
				c-0.2-0.3,0.3-1.2-0.2-1.5l-0.1,0c-0.8,0.1-0.1,1.1-0.3,1.5c-0.4,0.6-1,0.6-1,1.1c0,0.4,1,0.8,0.5,1.7c-0.4,0.7,0.6,0.9,0.4,1
				c-0.3,0.3-0.4,0.3-0.9,0.7l-0.1,0.1v9h-2.7l2.8,5h0.9v1h3V132.7z M132.3,120.7h1v7h-1V120.7z M84.3,127.7h-1v-7h1V127.7z
				 M87.3,127.7h-1v-7h1V127.7z M91.3,127.7h-1v-7h1V127.7z M94.3,127.7h-1v-7h1V127.7z M98.3,127.7h-1v-7h1V127.7z M101.3,127.7h-1
				v-7h1V127.7z M108.3,127.7h-1v-7h1V127.7z M112.3,127.7h-1v-7h1V127.7z M115.3,127.7h-1v-7h1V127.7z M119.3,127.7h-1v-7h1V127.7z
				 M122.3,127.7h-1v-7h1V127.7z M126.3,127.7h-1v-7h1V127.7z M128.3,120.7h1v7h-1V120.7z M123.1,87.3l0.5,19.5l-6.2-1.4l-0.1-21
				C117.7,78.4,123.1,82.4,123.1,87.3z M101.7,83.5c0.5-6.2,7.6-5.4,7.6-0.5v21.7h-8.1L101.7,83.5z M87.8,86.3
				c0.4-6.3,6.5-7.1,6.5-2.2v21.6h-0.1l-6.8,1.9L87.8,86.3z M127.7,111.7l-0.4,1H83.8l-0.5-1H127.7z M79.3,120.7h1v7h-1V120.7z
				 M76.3,120.7h1v7h-1V120.7z"/>
			<path class="st4" d="M112.8,224.3c-1.3,0-2.5,0.8-2.9,2.4h-0.2c0-4.4,0.9-7.1,3.3-7.1c0.5,0,0.8,0,1.1,0.2
				c-0.1,0.6-0.3,1-0.3,1.5c0.1,0.6,0.6,1.1,1.1,1.1c0.6,0,1.1-0.4,1.2-1.4c0-1.4-1.6-2.5-3.8-2.5c-3.1,0-5.6,3.3-5.6,8.7
				c0,2.6,1.4,6,5,6c2.9,0,4.9-2.1,4.9-4.9C116.6,226.1,115.2,224.3,112.8,224.3z M112,232.2c-2,0-2.3-2.5-2.4-4.5
				c0.4-1.3,1.3-2,2.2-2c1.4,0,2,1.2,2,3.1C113.8,230.8,113.4,232.2,112,232.2z"/>
			<path class="st4" d="M159.3,195.4c-0.6-0.7-0.8-0.6-1.1-1c-0.2-0.2,0.7-0.5,0.4-1.1c-0.5-0.9,0.5-1.4,0.5-1.8
				c0-0.6-0.6-0.6-1-1.2c-0.2-0.3,0.3-1.3-0.2-1.6l-0.1,0c-0.8,0.1-0.1,1.3-0.3,1.6c-0.4,0.6-1,0.6-1,1.2c0,0.4,1,0.8,0.5,1.8
				c-0.3,0.7,0.6,0.9,0.4,1.1c-0.3,0.3-0.5,0.3-1,0.3h-17.1V185l3.1-5.3h-5.2l0.1-45h-65v-1h-1v47h-5.2l3.2,5.3v9.7H53.1
				c0,0-0.7-0.9-1-1.2c-0.2-0.2,0.7-0.5,0.4-1.1c-0.5-0.9,0.5-1.4,0.5-1.8c0-0.6-0.6-0.6-1-1.2c-0.2-0.3,0.3-1.3-0.2-1.6l-0.1,0
				c-0.8,0.1-0.1,1.2-0.3,1.6c-0.4,0.6-1,0.6-1,1.2c0,0.4,1,0.8,0.5,1.8c-0.3,0.7,0.6,0.9,0.4,1.1c-0.3,0.3-0.5,0.3-1,0.2h-2.9
				l2.9,6.1v11.9h109V201l2.9-5.3h-2.9V195.4z M105,144.5c7.2,0,13,5.6,13,12.4c0,6.9-5.8,12.4-13,12.4c-7.2,0.1-13-5.5-13-12.4
				C92,150,97.8,144.5,105,144.5z M136.7,184.7l-0.7,1H72.9l-0.7-1H136.7z M154.4,200.7H54.6l-1.1-1h102L154.4,200.7z"/>
			<path class="st4" d="M87.3,218.7h-1.7c-0.5,1-1.7,1.4-2.3,1.5v0.5h1v11.5l-2,0.2v0.3h7v-0.3l-2-0.2V218.7z"/>
			<path class="st4" d="M99.3,55.9v0.6l3.6-0.8h5l3.6,1l-0.2-13.1l1.4-1.4l-1.4-0.7c-0.4-3.5-2.5-5.4-4.9-5.9l-0.2,0l-0.6-27.1
				l-1.1,27.2h0.1c-2.5,0.3-4.9,2.4-4.9,6.1l-1.6,0.7l1.5,1.2L99.3,55.9z M109.3,47.3c0.1-1.7,1.7-0.6,1.7,0.9l0.1,5.7l-1.8-0.5
				V47.3z M104.3,47.5c0.1-1.8,2-1.6,2-0.1v6.3h-2.1L104.3,47.5z M100.3,47.8c0.1-1.9,2-2.2,2-0.6v6.5l-2.1,0.6L100.3,47.8z"/>
			<path class="st4" d="M111.3,67.3l11.2,2.6l2.9,1.6c-3.8-19.9-38.2-19-39,0.4l10.2-4.2L111.3,67.3z"/>
			<path class="st4" d="M85.3,78.2c0.1,0.1,8-2.7,10.2-3.4l0.4-0.1c0.1,0,0.2-0.1,0.2-0.1c0,0,15-0.4,15.1-0.4
				c0,0,11.4,2.7,11.6,2.7l3.5,3.2v1.2l4.1-4.5l-5.1-4.5v-0.1l-3.2-1.8L111,67.8l-14.7,0.4l-10.5,4.3L81,75.8l4.3,4.1V78.2z"/>
			<path class="st4" d="M99.7,225.2l-0.1-0.3c1.5-0.5,2.6-1.6,2.5-3.1c0-1.7-1.7-3.2-4.5-3.2s-4.5,1.7-4.5,3.8
				c0,1.6,1.2,2.8,2.5,3.6l0.1,0.5c-1.7,0.5-2.9,1.7-2.9,3.3c0,1.8,2,3.4,5.1,3.4c3,0,4.9-1.8,4.9-4
				C102.8,227.3,101.3,226.1,99.7,225.2z M97.7,219.5c1.7,0,2.3,1.1,2.3,2.5c0,1.1-0.4,2.2-1.2,2.8c-0.2-0.1-0.4-0.2-0.6-0.3
				c-1.1-0.4-2.4-1.3-2.4-2.7C95.8,220.5,96.3,219.5,97.7,219.5z M97.9,232.3c-2.1,0-2.9-1.1-2.9-2.7c0-1.2,0.5-2.4,1.7-3
				c0.2,0.1,0.5,0.2,0.7,0.3c1.3,0.5,2.8,1.4,2.8,2.9C100.2,231.2,99.6,232.3,97.9,232.3z"/>
		</g>
	</g>
</g>
<g id="圖層_1_拷貝_3">
	<g id="Page-1_00000047746201191465739810000016696645332758267576_">
		<g id="site-logo-white4_00000105426603606966911320000008153111550534244493_">
			<polygon class="st2" points="85.7,273.8 85.7,273.9 87.7,273.9 97,248.9 106.7,273.9 108.6,273.9 116.4,245.5 119.5,244.9 
				119.5,243.6 114.8,243.7 109.6,243.6 109.6,244.9 113.8,245.4 113.8,245.8 108.4,267.4 99.3,243.6 96.6,243.6 88,267.2 
				81.8,245.8 81.8,245.4 85.4,245 85.4,243.6 79.5,243.6 74,243.5 73.9,244.8 77,245.5 			"/>
			<path class="st2" d="M58.3,274.2c9.3,0,15.3-6.7,15.3-15.5c0-8.8-5.9-15.6-15.3-15.6S43,249.9,43,258.7
				C43,267.5,48.9,274.2,58.3,274.2z M58.3,245c7.5,0,10.2,5.9,10.2,13.7c0,7.8-2.7,13.7-10.2,13.7c-7.5,0-10.2-5.9-10.2-13.7
				C48.1,251,50.8,245,58.3,245z"/>
			<path class="st2" d="M169.3,265v2.1c0,4.2,1.5,6.9,4.5,6.9c2.3,0,3.5-1,4.5-2.7l-0.9-0.5c-0.4,1-0.9,1.5-1.7,1.5
				c-1.3,0-2.2-1.4-2.2-5.1v-2c0-3.5-2.3-6.3-7.3-6.5l-0.2-0.7c4.5-0.8,7.8-2.7,7.8-6.9c0-4.3-4.3-7.4-12.2-7.4h-13l-0.1,1.2
				l3.4,0.4v27.2l-3.4,0.4v1.1l5.6-0.1l5.4,0.1v-1.1l-3.4-0.7v-12.9h8.1C167.8,259.2,169.3,262.4,169.3,265z M160.6,257.7h-4.1
				v-12.4l5.3,0c6,0,7.7,3,7.7,5.8C169.5,254.2,167.5,257.9,160.6,257.7z"/>
			<polygon class="st2" points="155.8,285 155.8,285.8 158.3,286.1 158.3,305.1 155.8,305.4 155.8,306.2 159.9,306.2 163.8,306.2 
				163.8,305.4 161.5,305 161.5,286.1 163.8,285.8 163.8,285 159.9,285.1 			"/>
			<path class="st2" d="M136,273.9l5.5-0.1l5.4,0.1v-1.1l-3-0.5l-11.2-28.7h-2.5l-7.4,19.3c-1.9,5.1-4,9.5-4,9.5l-2.8,0.4v1.1
				l4.4-0.1l4.9,0.1v-1.1l-3.5-0.4c0,0,0.9-2.9,2.7-7.5h12.2l2.8,7.5l-3.4,0.4V273.9z M125.2,262.8l5.3-14.1l5.3,14.1H125.2z"/>
			<path class="st2" d="M145.3,293.9c-2.9-1.4-5.9-2.3-5.9-4.5c0-2.2,1.4-3.6,4.4-3.6c2.7,0,5,1.5,5.5,4.8h1.3v-5.7h-1.2l-0.6,1.6
				c-0.7-0.7-2.7-1.8-5.1-1.8c-3.2,0-6.7,2-6.7,5.4c0,2.4,1.4,4.4,6.4,6.5c2.3,1.1,5.5,2.2,5.5,4.8c0,2.3-1.8,3.9-4.5,3.9
				c-3.8,0-5.4-1.7-5.9-5.2l-1.3,0v6h1l0.6-1.7c1.2,1.1,3.1,2,5.7,2c3.8,0,7.2-2.2,7.2-6.1C151.5,297.8,149.5,295.9,145.3,293.9z"/>
			<path class="st2" d="M166.3,284.9l-0.4,5.5h1.3l0.3-0.9c0.7-1.9,1.8-3.4,4.6-3.4h2.3v18.9l-2.3,0.2v0.8l4-0.1l3.9,0.1l0.1-0.8
				l-2.5-0.2v-18.9h2c2.8,0,3.9,1.4,4.6,3.4l0.3,0.9h1.3l-0.4-5.5H166.3z"/>
			<polygon class="st2" points="201.7,284.9 201.7,285.7 203.9,286.1 203.9,286.5 198.4,295.9 192.8,286.3 192.8,286 194.9,285.7 
				194.9,284.9 190.8,284.9 187,284.9 187,285.7 189.1,286.1 196.1,297.4 196.1,305.1 193.7,305.5 193.7,306.3 197.7,306.2 
				201.7,306.3 201.7,305.5 199.2,305.1 199.2,297.4 206.1,286.1 208.2,285.7 208.2,284.9 205.5,284.9 			"/>
			<path class="st2" d="M209.8,258.4c0-7.9-6.2-14.8-16.9-14.8h-12.3l-0.1,1.2l3.4,0.4v27.2l-3.3,0.4v1.1l5.6-0.1h6.7
				C202.4,273.9,209.8,268.5,209.8,258.4z M188.2,272.1v-26.8l3.8-0.1c9.6,0,12.9,7.2,12.9,13.1c0,6.1-2.5,13.8-12.5,13.7H188.2z"/>
			<polygon class="st2" points="28.4,272.7 28.4,273.9 34.1,273.8 39.5,273.9 39.5,272.7 36.2,272.2 36.2,244.6 39.5,244.2 
				39.5,243 34,243.1 28.4,243 28.4,244.2 31.7,244.6 31.7,257.6 13.5,257.6 13.5,244.6 16.8,244.2 16.8,243 11.3,243.1 5.7,243 
				5.6,244.2 9.1,244.6 9.1,272.3 5.7,272.8 5.7,273.9 11.4,273.8 16.8,273.9 16.8,272.8 13.5,272.2 13.5,259.5 31.8,259.5 
				31.8,272.2 			"/>
			<path class="st2" d="M24.9,285l-3.3-0.1v0.9l2.4,0.2v13.5c0,3.6-2.5,5.3-6.4,5.3s-6.3-1.6-6.3-5v-13.8l2.4-0.2v-0.9L9.6,285
				l-3.9-0.1l-0.1,0.9l2.5,0.2V300c0,4.4,4.1,6.6,8.5,6.6c5.3,0,9-2.2,9-6.9v-13.6l2.4-0.2l-0.1-0.9L24.9,285z"/>
			<path class="st2" d="M46.8,284.9v0.8l2.9,0.4c0,0,0.2,3.3,0.2,7.3v8.6L35.4,285l-4.8-0.1l-0.1,0.8c0.1,0,0.2,0,0.3,0l0.2,0
				c1.2,0.2,2.3,0.3,2.3,1.8v9.4c0,5.4-0.2,8.1-0.2,8.1l-2.5,0.3v0.8l3.8,0l3.4,0v-0.8l-2.5-0.4c0,0-0.3-2.8-0.3-8v-7.5l14.3,16.6
				h2.2l0-12.8c0-4,0.3-7.3,0.3-7.3l2.4-0.3v-0.8l-3.7,0L46.8,284.9z"/>
			<path class="st2" d="M132.6,305.1c-1,0-1.6-1-1.6-3.6v-1.4c0-2.4-1.7-4.4-5.4-4.5l-0.1-0.5c3.3-0.6,5.7-1.9,5.7-4.9
				c0-3-3.1-5.2-8.9-5.2h-8.7l-0.1,0.8l2.5,0.2v19l-2.5,0.3v0.8l4.1,0l3.9,0v-0.8l-2.4-0.3v-9h5c2.4,0,3.5,2.2,3.5,4v1.4
				c0,2.9,1,4.8,3.3,4.8c1.7,0,2.6-0.7,3.3-1.9l-0.6-0.4C133.5,304.7,133.1,305.1,132.6,305.1z M121.4,294.9h-2.2v-8.7h2.9
				c4.5,0,5.8,2.1,5.8,4.1C127.9,292.4,126.5,295,121.4,294.9z"/>
			<path class="st2" d="M108.6,301.5c-0.6,1.9-2.6,3.5-5.6,3.5h-6.2v-8.9h1.5c2.4,0,4.1,0.6,4.1,2.3v0.6h1v-6.9h-1v0.6
				c0,1.7-1.8,2.3-4.1,2.2h-1.5v-8.7h5.2c3.1,0,4.5,1.7,5.1,3.6l0.2,0.7h1.3l-0.1-5.6v0H91.2l-0.1,0.8l2.5,0.2v19l-2.5,0.3v0.8
				l4.1,0h14.1l0.7-5.4l-1.3,0L108.6,301.5z"/>
			<polygon class="st2" points="57.4,285 57.3,285.8 59.8,286.1 59.8,305.1 57.3,305.4 57.3,306.2 61.5,306.2 65.3,306.2 
				65.3,305.4 63,305 63,286.1 65.4,285.8 65.4,285 61.5,285.1 			"/>
			<polygon class="st2" points="83.1,284.9 83.1,285.7 85.5,286 79.3,302.4 72.8,286 75.2,285.7 75.2,284.9 71.3,284.9 67.3,284.9 
				67.3,285.7 69.6,286.1 77.6,306.1 79.4,306.1 87.4,286.1 89.6,285.7 89.6,284.9 86.6,284.9 			"/>
		</g>
	</g>
	<g id="Page-1_00000023273222674748583880000017048764505183177610_">
		<g id="site-logo-white4_00000129905734904521680170000010762587180571897261_">
			<path class="st4" d="M120.6,221.7h0.1c0,0,0.6-0.5,1.1-1h5.5v0.9c-3.1,3.9-4.2,7-4.2,10.2c0,1,0.4,1.5,1.3,1.5
				c0.8,0,1.2-0.5,1.1-1.5c0-3.6,3.8-12,3.8-12v-1.1h-8.4L120.6,221.7z"/>
			<polygon class="st4" points="104.8,156.1 104.6,148.7 103.2,156.9 114,161 			"/>
			<path class="st4" d="M75.3,132.7h4v1h4v-1h4v1h3v-1h4v1h4v-1h4v1h4v-1h4v1h4v-1h4v1h4v-1h4v1h4v-1h4v1h3l0,1h0v-1h0l0-0.5l0-0.3
				l2.9-5.2h-2.9v-9c-0.5-0.7-0.7-0.6-1-0.9c-0.2-0.2,0.7-0.5,0.4-1.1c-0.5-0.9,0.5-1.4,0.5-1.8c0-0.6-0.6-0.6-1-1.2
				c-0.2-0.3,0.3-1.3-0.2-1.5l-0.1,0c-0.8,0.1-0.1,1.2-0.3,1.6c-0.4,0.6-1,0.6-1,1.2c0,0.4,1,0.8,0.5,1.8c-0.4,0.7,0.6,0.9,0.4,1.1
				c-0.3,0.3-0.5,0.3-1,0.9h-6.2v-8l-2,0L125.4,82l-0.6-1.1c0,0-3.1-2.7-3.1-2.8c0,0-11.2-2.5-11.2-2.6L96,75.9l-9.9,3.3l-0.6,1.3
				l-1.1,28.8v1.4l-2,0v8H74c-0.5-0.7-0.7-0.6-1-0.9c-0.2-0.2,0.7-0.5,0.4-1c-0.5-0.9,0.5-1.3,0.5-1.7c0-0.6-0.6-0.6-1-1.1
				c-0.2-0.3,0.3-1.2-0.2-1.5l-0.1,0c-0.8,0.1-0.1,1.1-0.3,1.5c-0.4,0.6-1,0.6-1,1.1c0,0.4,1,0.8,0.5,1.7c-0.4,0.7,0.6,0.9,0.4,1
				c-0.3,0.3-0.4,0.3-0.9,0.7l-0.1,0.1v9h-2.7l2.8,5h0.9v1h3V132.7z M132.3,120.7h1v7h-1V120.7z M84.3,127.7h-1v-7h1V127.7z
				 M87.3,127.7h-1v-7h1V127.7z M91.3,127.7h-1v-7h1V127.7z M94.3,127.7h-1v-7h1V127.7z M98.3,127.7h-1v-7h1V127.7z M101.3,127.7h-1
				v-7h1V127.7z M108.3,127.7h-1v-7h1V127.7z M112.3,127.7h-1v-7h1V127.7z M115.3,127.7h-1v-7h1V127.7z M119.3,127.7h-1v-7h1V127.7z
				 M122.3,127.7h-1v-7h1V127.7z M126.3,127.7h-1v-7h1V127.7z M128.3,120.7h1v7h-1V120.7z M123.1,87.3l0.5,19.5l-6.2-1.4l-0.1-21
				C117.7,78.4,123.1,82.4,123.1,87.3z M101.7,83.5c0.5-6.2,7.6-5.4,7.6-0.5v21.7h-8.1L101.7,83.5z M87.8,86.3
				c0.4-6.3,6.5-7.1,6.5-2.2v21.6h-0.1l-6.8,1.9L87.8,86.3z M127.7,111.7l-0.4,1H83.8l-0.5-1H127.7z M79.3,120.7h1v7h-1V120.7z
				 M76.3,120.7h1v7h-1V120.7z"/>
			<path class="st4" d="M112.8,224.3c-1.3,0-2.5,0.8-2.9,2.4h-0.2c0-4.4,0.9-7.1,3.3-7.1c0.5,0,0.8,0,1.1,0.2
				c-0.1,0.6-0.3,1-0.3,1.5c0.1,0.6,0.6,1.1,1.1,1.1c0.6,0,1.1-0.4,1.2-1.4c0-1.4-1.6-2.5-3.8-2.5c-3.1,0-5.6,3.3-5.6,8.7
				c0,2.6,1.4,6,5,6c2.9,0,4.9-2.1,4.9-4.9C116.6,226.1,115.2,224.3,112.8,224.3z M112,232.2c-2,0-2.3-2.5-2.4-4.5
				c0.4-1.3,1.3-2,2.2-2c1.4,0,2,1.2,2,3.1C113.8,230.8,113.4,232.2,112,232.2z"/>
			<path class="st4" d="M159.3,195.4c-0.6-0.7-0.8-0.6-1.1-1c-0.2-0.2,0.7-0.5,0.4-1.1c-0.5-0.9,0.5-1.4,0.5-1.8
				c0-0.6-0.6-0.6-1-1.2c-0.2-0.3,0.3-1.3-0.2-1.6l-0.1,0c-0.8,0.1-0.1,1.3-0.3,1.6c-0.4,0.6-1,0.6-1,1.2c0,0.4,1,0.8,0.5,1.8
				c-0.3,0.7,0.6,0.9,0.4,1.1c-0.3,0.3-0.5,0.3-1,0.3h-17.1V185l3.1-5.3h-5.2l0.1-45h-65v-1h-1v47h-5.2l3.2,5.3v9.7H53.1
				c0,0-0.7-0.9-1-1.2c-0.2-0.2,0.7-0.5,0.4-1.1c-0.5-0.9,0.5-1.4,0.5-1.8c0-0.6-0.6-0.6-1-1.2c-0.2-0.3,0.3-1.3-0.2-1.6l-0.1,0
				c-0.8,0.1-0.1,1.2-0.3,1.6c-0.4,0.6-1,0.6-1,1.2c0,0.4,1,0.8,0.5,1.8c-0.3,0.7,0.6,0.9,0.4,1.1c-0.3,0.3-0.5,0.3-1,0.2h-2.9
				l2.9,6.1v11.9h109V201l2.9-5.3h-2.9V195.4z M105,144.5c7.2,0,13,5.6,13,12.4c0,6.9-5.8,12.4-13,12.4c-7.2,0.1-13-5.5-13-12.4
				C92,150,97.8,144.5,105,144.5z M136.7,184.7l-0.7,1H72.9l-0.7-1H136.7z M154.4,200.7H54.6l-1.1-1h102L154.4,200.7z"/>
			<path class="st4" d="M87.3,218.7h-1.7c-0.5,1-1.7,1.4-2.3,1.5v0.5h1v11.5l-2,0.2v0.3h7v-0.3l-2-0.2V218.7z"/>
			<path class="st4" d="M99.3,55.9v0.6l3.6-0.8h5l3.6,1l-0.2-13.1l1.4-1.4l-1.4-0.7c-0.4-3.5-2.5-5.4-4.9-5.9l-0.2,0l-0.6-27.1
				l-1.1,27.2h0.1c-2.5,0.3-4.9,2.4-4.9,6.1l-1.6,0.7l1.5,1.2L99.3,55.9z M109.3,47.3c0.1-1.7,1.7-0.6,1.7,0.9l0.1,5.7l-1.8-0.5
				V47.3z M104.3,47.5c0.1-1.8,2-1.6,2-0.1v6.3h-2.1L104.3,47.5z M100.3,47.8c0.1-1.9,2-2.2,2-0.6v6.5l-2.1,0.6L100.3,47.8z"/>
			<path class="st4" d="M111.3,67.3l11.2,2.6l2.9,1.6c-3.8-19.9-38.2-19-39,0.4l10.2-4.2L111.3,67.3z"/>
			<path class="st4" d="M85.3,78.2c0.1,0.1,8-2.7,10.2-3.4l0.4-0.1c0.1,0,0.2-0.1,0.2-0.1c0,0,15-0.4,15.1-0.4
				c0,0,11.4,2.7,11.6,2.7l3.5,3.2v1.2l4.1-4.5l-5.1-4.5v-0.1l-3.2-1.8L111,67.8l-14.7,0.4l-10.5,4.3L81,75.8l4.3,4.1V78.2z"/>
			<path class="st4" d="M99.7,225.2l-0.1-0.3c1.5-0.5,2.6-1.6,2.5-3.1c0-1.7-1.7-3.2-4.5-3.2s-4.5,1.7-4.5,3.8
				c0,1.6,1.2,2.8,2.5,3.6l0.1,0.5c-1.7,0.5-2.9,1.7-2.9,3.3c0,1.8,2,3.4,5.1,3.4c3,0,4.9-1.8,4.9-4
				C102.8,227.3,101.3,226.1,99.7,225.2z M97.7,219.5c1.7,0,2.3,1.1,2.3,2.5c0,1.1-0.4,2.2-1.2,2.8c-0.2-0.1-0.4-0.2-0.6-0.3
				c-1.1-0.4-2.4-1.3-2.4-2.7C95.8,220.5,96.3,219.5,97.7,219.5z M97.9,232.3c-2.1,0-2.9-1.1-2.9-2.7c0-1.2,0.5-2.4,1.7-3
				c0.2,0.1,0.5,0.2,0.7,0.3c1.3,0.5,2.8,1.4,2.8,2.9C100.2,231.2,99.6,232.3,97.9,232.3z"/>
		</g>
	</g>
</g>
</svg>
